<?xml version="1.0" encoding="utf-8"?>
<!-- Generator: Adobe Illustrator 26.1.0, SVG Export Plug-In . SVG Version: 6.00 Build 0)  -->
<svg version="1.1" id="Layer_1" xmlns="http://www.w3.org/2000/svg" xmlns:xlink="http://www.w3.org/1999/xlink" x="0px" y="0px"
	 viewBox="0 0 1537 867.5" style="enable-background:new 0 0 1537 867.5;" xml:space="preserve">
<style type="text/css">
	.st0{fill:#F16924;stroke:#010101;stroke-width:3;stroke-miterlimit:10;}
	.st1{fill:#010101;stroke:#010101;stroke-width:5;stroke-miterlimit:10;}
	.st2{fill-rule:evenodd;clip-rule:evenodd;fill:#F16924;stroke:#F16924;stroke-width:2;}
	.st3{fill:#020202;}
	.st4{fill-rule:evenodd;clip-rule:evenodd;fill:#020202;}
	.st5{fill:none;stroke:#020202;stroke-width:6;stroke-linecap:round;stroke-linejoin:round;stroke-miterlimit:133.3333;}
	.st6{fill:none;}
	.st7{fill:#010101;}
	.st8{fill:#F16A25;stroke:#020202;stroke-width:3;stroke-miterlimit:10;}
	.st9{fill:#020202;stroke:#020202;stroke-width:5;stroke-miterlimit:10;}
	.st10{fill:#222222;stroke:#030303;stroke-miterlimit:10;}
	.st11{fill-rule:evenodd;clip-rule:evenodd;fill:#F16A24;stroke:#F16A24;stroke-width:1.4173;stroke-linecap:round;}
	.st12{fill-rule:evenodd;clip-rule:evenodd;fill:#FFFFFF;}
	.st13{stroke:#000000;stroke-width:5;stroke-miterlimit:10;}
	.st14{fill-rule:evenodd;clip-rule:evenodd;fill:#F16B25;stroke:#F16B25;stroke-width:1.4173;stroke-linecap:round;}
</style>
<polygon class="st0" points="244.7,363.3 179.6,363.3 146.9,419.7 179.6,476.2 244.7,476.2 277.3,419.7 "/>
<polygon class="st1" points="397.6,115.5 299.5,115.5 250.5,200.4 299.5,285.2 397.6,285.2 446.6,200.4 "/>
<polygon class="st0" points="519,230.1 453.8,230.1 421.3,286.6 453.8,343 519,343 551.6,286.6 "/>
<polygon class="st0" points="382,306.8 316.9,306.8 284.3,363.3 316.9,419.7 382,419.7 414.6,363.3 "/>
<polygon class="st0" points="244.7,228.8 179.6,228.8 146.9,285.2 179.6,341.7 244.7,341.7 277.3,285.2 "/>
<polygon class="st0" points="381.1,441.2 316,441.2 283.4,497.7 316,554.2 381.1,554.2 413.7,497.7 "/>
<polygon class="st0" points="519.9,365.7 454.8,365.7 422.2,422.1 454.8,478.6 519.9,478.6 552.6,422.1 "/>
<polygon class="st0" points="244.7,59 179.6,59 146.9,115.5 179.6,171.9 244.7,171.9 277.3,115.5 "/>
<polygon class="st0" points="524,59 458.8,59 426.2,115.5 458.8,171.9 524,171.9 556.6,115.5 "/>
<polygon class="st0" points="122.3,297.3 57.2,297.3 24.6,353.7 57.2,410.2 122.3,410.2 154.9,353.7 "/>
<polygon class="st0" points="642.3,297.3 577.2,297.3 544.5,353.7 577.2,410.2 642.3,410.2 674.9,353.7 "/>
<g id="svgGroup">
	<path vector-effect="non-scaling-stroke" class="st2" d="M263.1,214.4v-22.5c0-0.4,0.1-0.9,0.2-1.3c0.2-0.7,0.5-1.4,1.1-1.9
		c0.5-0.4,1.1-0.7,1.7-0.9c0.5-0.2,1.1-0.2,1.7-0.2H280c0.1,0,0.2,0,0.3,0c0.2,0,0.4,0.1,0.5,0.2c0,0,0.1,0,0.1,0.1
		c0.1,0.1,0.2,0.2,0.2,0.3c0,0.1,0.1,0.2,0.1,0.2c0,0.1,0,0.1,0,0.2c0,0.2,0,0.2-0.1,0.4c-0.2,0.2-0.4,0.4-0.8,0.5
		c-0.1,0-0.2,0-0.2,0h-12.5c-0.2,0-0.5,0-0.7,0.1c-0.3,0.1-0.7,0.3-0.9,0.6c-0.3,0.3-0.5,0.7-0.6,1.2c0,0.2-0.1,0.4-0.1,0.6v8.8H277
		c0.1,0,0.2,0,0.3,0c0.2,0,0.4,0.1,0.5,0.2c0,0,0.1,0,0.1,0.1c0.1,0.1,0.2,0.2,0.2,0.3c0,0.1,0.1,0.2,0.1,0.2c0,0.1,0,0.1,0,0.2
		c0,0.2,0,0.2-0.1,0.4c-0.2,0.2-0.4,0.4-0.8,0.5c-0.1,0-0.2,0-0.2,0h-11.7v11.9c0,0.2,0,0.3-0.1,0.5c-0.1,0.5-0.5,0.8-1,0.8
		c-0.7,0-1-0.3-1-1.1C263.1,214.5,263.1,214.4,263.1,214.4z M324.3,214.4v-17.6c0-0.8,0.3-1.2,1-1.2c0.7,0,1,0.3,1,1.1
		c0,0.1,0,0.2,0,0.2v2.8c1-1.3,2.1-2.3,3.6-3.1c1.3-0.7,2.7-1,4.1-1.1c0.2,0,0.3,0,0.5,0c0.7,0,1.5,0.1,2.2,0.2
		c1.5,0.2,2.6,0.9,3.6,1.8c0.7,0.7,1.2,1.6,1.5,2.6c0.2,0.7,0.3,1.3,0.4,2.1c0,0.3,0.1,0.7,0.1,1.1v11.1c0,0.7-0.2,1.2-0.8,1.2
		c-0.1,0-0.2,0-0.2,0c-0.2,0-0.3,0-0.4-0.1c-0.3-0.2-0.5-0.4-0.5-0.9c0-0.1,0-0.2,0-0.2v-11.1c0-0.6,0-1.1-0.1-1.7
		c-0.2-1.2-0.6-2.1-1.2-2.8c-0.5-0.5-1-0.8-1.7-1c-0.4-0.2-0.9-0.2-1.5-0.3c-0.4-0.1-0.8-0.1-1.2-0.1c-0.7,0-1.5,0.1-2.2,0.2
		c-0.7,0.2-1.4,0.4-2.1,0.7c-1.2,0.7-2.2,1.6-2.9,2.7c-0.6,0.9-0.9,2-1,3.1c0,0.3-0.1,0.7-0.1,1v9.2c0,0.7-0.2,1.2-0.8,1.2
		c-0.1,0-0.2,0-0.2,0c-0.2,0-0.3,0-0.4-0.1c-0.3-0.2-0.5-0.4-0.5-0.9C324.3,214.6,324.3,214.5,324.3,214.4z M389.5,214.4v-17.6
		c0-0.8,0.3-1.2,1-1.2c0.7,0,1,0.3,1,1.1c0,0.1,0,0.2,0,0.2v2.8c1-1.3,2.1-2.3,3.6-3.1c1.3-0.7,2.7-1,4.1-1.1c0.2,0,0.3,0,0.5,0
		c0.7,0,1.5,0.1,2.2,0.2c1.5,0.2,2.6,0.9,3.6,1.8c0.7,0.7,1.2,1.6,1.5,2.6c0.2,0.7,0.3,1.3,0.4,2.1c0,0.3,0.1,0.7,0.1,1.1v11.1
		c0,0.7-0.2,1.2-0.8,1.2c-0.1,0-0.2,0-0.2,0c-0.2,0-0.3,0-0.4-0.1c-0.3-0.2-0.5-0.4-0.5-0.9c0-0.1,0-0.2,0-0.2v-11.1
		c0-0.6,0-1.1-0.1-1.7c-0.2-1.2-0.6-2.1-1.2-2.8c-0.5-0.5-1-0.8-1.7-1c-0.4-0.2-0.9-0.2-1.5-0.3c-0.4-0.1-0.8-0.1-1.2-0.1
		c-0.7,0-1.5,0.1-2.2,0.2c-0.7,0.2-1.4,0.4-2.1,0.7c-1.2,0.7-2.2,1.6-2.9,2.7c-0.6,0.9-0.9,2-1,3.1c0,0.3-0.1,0.7-0.1,1v9.2
		c0,0.7-0.2,1.2-0.8,1.2c-0.1,0-0.2,0-0.2,0c-0.2,0-0.3,0-0.4-0.1c-0.3-0.2-0.5-0.4-0.5-0.9C389.5,214.6,389.5,214.5,389.5,214.4z
		 M431.9,199.9v-13.4c0-0.7,0.2-1.2,0.8-1.2c0.1,0,0.2,0,0.2,0c0.2,0,0.3,0,0.4,0.1c0.3,0.2,0.5,0.4,0.5,0.9c0,0.1,0,0.2,0,0.2v27.8
		c0,0.8-0.3,1.2-1,1.2s-1-0.3-1-1.1c0-0.1,0-0.2,0-0.2V211c-0.9,1.5-2.1,2.6-3.7,3.3c-1.1,0.5-2.2,0.9-3.5,1
		c-0.6,0.1-1.2,0.1-1.7,0.1c-1.1,0-2.1-0.1-3.1-0.3c-1.9-0.4-3.4-1.2-4.6-2.3c-1.3-1.2-2.2-2.9-2.6-4.7c-0.2-0.8-0.2-1.7-0.2-2.6
		c0-1.1,0.2-2.1,0.4-3.2c0.2-0.7,0.5-1.3,0.8-2c0.8-1.6,2-2.7,3.6-3.6c0.9-0.5,2-0.9,3-1.1c0.8-0.2,1.7-0.2,2.7-0.2h0.1
		c0.7,0,1.6,0.1,2.3,0.2c1.1,0.2,2,0.5,2.8,1c1.2,0.7,2.2,1.5,3.1,2.6C431.6,199.4,431.7,199.6,431.9,199.9z M381.3,206.5h-15.4
		c0,2.3,0.7,4,2.2,5.4c0.8,0.7,1.8,1.2,2.8,1.5c1,0.2,2.1,0.4,3.3,0.4c0.6,0,1.2,0,1.8-0.1c0.9-0.1,1.7-0.2,2.4-0.5
		c1-0.3,2-0.9,2.8-1.6c0.1-0.1,0.2-0.2,0.3-0.3s0.2-0.2,0.2-0.2c0.2-0.2,0.5-0.3,0.7-0.3c0,0,0,0,0.1,0s0.1,0,0.2,0s0.2,0.1,0.3,0.2
		c0.1,0.1,0.2,0.2,0.2,0.2c0.1,0.1,0.2,0.2,0.2,0.2c0,0.1,0.1,0.2,0.1,0.2c0,0.2-0.1,0.4-0.2,0.6l-0.1,0.1c-1,1.1-2.2,1.9-3.8,2.5
		c-0.9,0.3-1.9,0.6-2.9,0.7c-0.7,0.1-1.5,0.2-2.2,0.2c-1,0-2.1-0.1-3.1-0.2c-2-0.4-3.6-1.2-4.7-2.4c-1.1-1.1-1.9-2.5-2.2-4
		c-0.3-1.1-0.4-2.3-0.4-3.6c0-0.9,0.1-1.7,0.2-2.6c0.2-0.9,0.5-1.8,1-2.6c0.8-1.5,2.1-2.6,3.6-3.5c1-0.5,2.1-0.8,3.1-1
		c0.8-0.2,1.7-0.2,2.5-0.2c0.9,0,1.8,0.1,2.7,0.2c0.9,0.2,1.7,0.4,2.6,0.7c1.6,0.7,2.7,1.6,3.6,2.7s1.3,2.5,1.3,4c0,0.3,0,0.7-0.1,1
		c-0.1,0.4-0.2,0.7-0.4,1c-0.1,0.2-0.2,0.2-0.3,0.4C383,206.1,382.3,206.5,381.3,206.5z M349.9,210.1v-12.5h-2.2c-0.1,0-0.2,0-0.3,0
		c-0.2,0-0.4-0.1-0.5-0.2c0,0-0.1,0-0.1-0.1c-0.1-0.1-0.2-0.2-0.2-0.3c0-0.1-0.1-0.2-0.1-0.3c0-0.2,0-0.2,0.1-0.4
		c0.2-0.3,0.5-0.5,1.1-0.5h2.3v-7c0-0.7,0.2-1.2,0.8-1.2c0.1,0,0.2,0,0.2,0c0.2,0,0.3,0,0.4,0.1c0.3,0.2,0.5,0.4,0.5,0.9
		c0,0.1,0,0.2,0,0.2v7h5.9c0.8,0,1.2,0.3,1.2,0.9c0,0.3-0.1,0.6-0.2,0.7c-0.2,0.2-0.4,0.2-0.8,0.2h-0.1h-5.9v12.6
		c0,0.4,0.1,0.9,0.2,1.3c0.2,1.2,1,1.8,2.1,2.1c0.2,0.1,0.6,0.1,0.8,0.1c0.3,0,0.6,0,0.9-0.1s0.7-0.2,0.9-0.2c0,0,0.1,0,0.1-0.1
		c0.2-0.1,0.5-0.2,0.7-0.4s0.4-0.3,0.6-0.6c0.1-0.1,0.2-0.2,0.2-0.3c0.3-0.3,0.6-0.5,0.9-0.5l0,0c0.2,0,0.3,0.1,0.5,0.2
		c0.1,0,0.1,0.1,0.2,0.1c0.1,0.1,0.2,0.1,0.2,0.2c0.1,0.1,0.2,0.2,0.2,0.3c0,0.1,0,0.1,0,0.2s0,0.2-0.1,0.2c0,0.1-0.1,0.2-0.1,0.2
		c0,0.1-0.1,0.2-0.2,0.2c-0.3,0.5-0.7,0.9-1.2,1.2c-0.2,0.2-0.6,0.4-0.9,0.5c-0.9,0.5-1.9,0.7-2.9,0.7c-0.6,0-1.1-0.1-1.7-0.2
		c-0.8-0.2-1.6-0.7-2.1-1.3c-0.7-0.7-1.1-1.5-1.2-2.4C350,211.2,349.9,210.7,349.9,210.1z M309.3,215.6c-2.3,0-4.2-0.5-5.8-1.4
		c-0.9-0.6-1.7-1.2-2.5-2.1c-0.4-0.5-0.7-1.1-1.1-1.7c-0.7-1.5-1.2-3.1-1.2-4.9c0-1.7,0.4-3.4,1.2-4.9c0.7-1.4,1.7-2.6,3.1-3.5
		c0.2-0.1,0.2-0.2,0.4-0.2c0.9-0.6,1.9-1,3-1.2c0.8-0.2,1.7-0.2,2.6-0.2c0.1,0,0.2,0,0.2,0c2.3,0,4.2,0.5,5.8,1.4
		c0.9,0.6,1.7,1.2,2.5,2.1c0.4,0.5,0.7,1.1,1.1,1.7c0.7,1.5,1.2,3.1,1.2,4.9c0,1.7-0.4,3.4-1.2,4.9c-0.7,1.4-1.7,2.6-3.1,3.5
		c-0.2,0.1-0.2,0.2-0.4,0.2c-0.9,0.6-1.9,1-3,1.2c-0.8,0.2-1.7,0.2-2.6,0.2C309.4,215.6,309.4,215.6,309.3,215.6z M284.9,214.4
		v-17.6c0-0.8,0.3-1.2,1-1.2s1,0.3,1,1.1c0,0.1,0,0.2,0,0.2v2.8c0.5-0.7,1-1.2,1.7-1.7c0.5-0.4,1.1-0.7,1.7-1.1
		c1.2-0.6,2.7-0.9,4.5-0.9h1c0.2,0,0.3,0,0.4,0c0.5,0.1,0.7,0.3,0.7,0.7c0,0.1,0,0.1,0,0.2c0,0.2,0,0.3-0.1,0.4
		c-0.2,0.3-0.4,0.5-0.9,0.5c-0.1,0-0.2,0-0.2,0h-1c-2.1,0-3.9,0.5-5.2,1.6c-0.2,0.2-0.3,0.2-0.5,0.4c-1,1-1.7,2.2-1.9,3.6
		c-0.1,0.6-0.2,1.2-0.2,1.8v9.2c0,0.7-0.2,1.2-0.8,1.2c-0.1,0-0.2,0-0.2,0c-0.2,0-0.3,0-0.4-0.1c-0.3-0.2-0.5-0.4-0.5-0.9
		C284.9,214.6,284.9,214.5,284.9,214.4z M423.1,213.7c0.9,0,1.8-0.1,2.6-0.2c1.6-0.3,2.9-1,3.9-1.9c1.6-1.5,2.4-3.5,2.4-5.9
		c0-0.8-0.1-1.6-0.3-2.3c-0.2-0.7-0.5-1.4-0.9-2.1c-0.8-1.2-1.9-2.1-3.3-2.8c-1.3-0.7-2.8-1-4.3-1c-2.3,0-4.2,0.6-5.6,1.7
		c-0.2,0.2-0.5,0.4-0.7,0.6c-1.2,1.2-1.9,2.6-2.1,4.3c-0.1,0.6-0.2,1.2-0.2,1.8c0,0.7,0.1,1.6,0.2,2.3c0.2,0.8,0.4,1.7,0.8,2.3
		c0.3,0.6,0.7,1.1,1.2,1.5c1.2,1.1,2.9,1.7,5,1.9C422.2,213.7,422.7,213.7,423.1,213.7z M309.3,213.7c2.6,0,4.5-0.7,6.1-2.1
		c1.1-1,1.7-2.2,2.1-3.6c0.2-0.7,0.2-1.6,0.2-2.3c0-0.8-0.1-1.7-0.2-2.5c-0.3-1.3-1-2.6-2-3.6c-1.1-1-2.4-1.7-3.9-2
		c-0.7-0.2-1.5-0.2-2.2-0.2c-2.6,0-4.5,0.7-6.1,2.1c-1.1,1-1.7,2.2-2.1,3.6c-0.2,0.7-0.2,1.6-0.2,2.3c0,0.8,0.1,1.7,0.2,2.5
		c0.3,1.3,1,2.6,2,3.6c1.1,1,2.4,1.7,3.9,1.9C307.8,213.6,308.5,213.7,309.3,213.7z M365.8,204.6h14.9c0.5,0,0.9-0.1,1.2-0.3l0,0
		c0.1-0.1,0.2-0.2,0.2-0.3c0.1-0.2,0.2-0.5,0.2-0.8c0-1.1-0.3-2.1-1.1-3c-0.5-0.6-1-1.1-1.7-1.4c-0.4-0.2-0.8-0.5-1.3-0.7
		c-0.8-0.3-1.7-0.6-2.6-0.7c-0.5-0.1-1.1-0.1-1.6-0.1c-0.8,0-1.6,0.1-2.4,0.2c-0.8,0.2-1.7,0.4-2.3,0.7c-0.5,0.2-1,0.6-1.4,1
		c-1,0.9-1.7,2.1-2,3.5C365.9,203.3,365.8,204,365.8,204.6z"/>
</g>
<path class="st3" d="M202.7,110.3l-0.7-7.4h27.5l0.7-7.2h-36.1l1.9,21.9h24.9L220,127l-7.9,2.2L204,127l-0.5-5.8h-7.1l0.9,11.4
	l14.9,4l14.7-4l2.1-22.3H202.7L202.7,110.3z M183.4,83.7h57.5l-5.2,59l-23.5,6.7l-23.5-6.7L183.4,83.7z"/>
<path class="st3" d="M509.3,95h-35.8l0.6,7.1h27.5l-0.7,7.3h-18l0.7,7h16.8l-1,9.6l-7.9,2.1l-8-2.2l-0.5-5.7h-7.1l0.8,10.5l14.9,4.6
	l14.5-4.1L509.3,95L509.3,95z M462.9,83h57l-5.2,58.5l-23.4,6.6l-23.2-6.6L462.9,83z"/>
<path class="st4" d="M180.1,253.1h64.3v64.3h-64.3V253.1z M229.2,307c-3,0-4.7-1.6-5.9-3.6l-4.9,2.9c1.7,3.5,5.4,6.2,11,6.2
	c5.8,0,10-3,10-8.4c0-5-2.9-7.3-8-9.5l-1.5-0.7c-2.6-1.2-3.7-1.8-3.7-3.6c0-1.5,1.2-2.6,2.9-2.6c1.7,0,2.9,0.7,3.9,2.6l4.7-3.1
	c-2-3.5-4.8-4.9-8.6-4.9c-5.4,0-8.8,3.5-8.8,8c0,5,2.9,7.3,7.3,9.1l1.5,0.7c2.7,1.2,4.4,1.9,4.4,4C233.3,305.7,231.7,307,229.2,307z
	 M205.7,307c-2.1,0-3-1.4-3.9-3.1l-5,3c1.4,3.1,4.2,5.5,9.1,5.5c5.4,0,9-2.8,9-9.1v-20.6h-6v20.6C209,306.2,207.7,307,205.7,307z"/>
<path class="st3" d="M207.9,435.4c1.4,0.1,2.8,0.1,4.3,0.1c1.5,0,2.9,0,4.3-0.1c-1.4,1.8-2.8,3.5-4.3,5l0,0
	c-1.5-1.5-2.9-3.1-4.2-4.8L207.9,435.4z M193.4,433.5c2.7,0.7,6.1,1.3,9.5,1.7h0.3c2.1,2.9,4.2,5.4,6.5,7.8l0,0
	c-3.3,3.7-7.8,6.4-12.9,7.3h-0.2l0,0c-0.7,0-1.2-0.2-1.7-0.4l0,0c-2.1-1.2-3.1-5.8-2.3-11.7C192.8,436.5,193.1,435,193.4,433.5
	L193.4,433.5z M230.9,433.4c0.3,1.2,0.6,2.7,0.7,4.3v0.2c0.7,5.9-0.2,10.6-2.2,11.7c-0.5,0.2-1,0.4-1.7,0.4c-0.1,0-0.1,0-0.2,0l0,0
	c-5.2-1-9.7-3.6-13-7.2l0,0c2.2-2.3,4.3-4.9,6.3-7.5l0.2-0.2c3.7-0.4,7.1-1,10.4-1.8L230.9,433.4L230.9,433.4z M196.4,424
	c0.7,1.2,1.3,2.5,2.1,3.7c0.7,1.2,1.5,2.5,2.2,3.6c-2.2-0.3-4.3-0.7-6.4-1.2C194.8,428.1,195.6,426,196.4,424L196.4,424z
	 M227.9,423.9c0.8,2.1,1.6,4.1,2.1,6.2c-2.1,0.5-4.2,0.9-6.4,1.2c0.7-1.2,1.5-2.4,2.2-3.6C226.6,426.4,227.3,425.1,227.9,423.9
	L227.9,423.9z M190.9,410.3c1.1,3.7,2.3,6.9,3.7,9.9l-0.2-0.5c-1.2,2.6-2.3,5.7-3.3,8.9l-0.2,0.5c-1.8-0.6-3.2-1.1-4.6-1.7l0.3,0.1
	c-5.5-2.3-9.1-5.4-9.1-7.8s3.6-5.5,9.1-7.8C187.9,411.2,189.4,410.8,190.9,410.3L190.9,410.3z M233.4,410.3c1.6,0.5,3,1,4.4,1.6
	c5.5,2.3,9.1,5.4,9.1,7.8c0,2.5-3.6,5.5-9.1,7.8c-1.3,0.6-2.8,1.1-4.3,1.6c-1.2-3.8-2.3-6.9-3.7-9.9l0.2,0.5
	c1.2-2.6,2.3-5.7,3.3-8.9L233.4,410.3L233.4,410.3z M223.7,408.1c2.2,0.3,4.3,0.7,6.4,1.2c-0.6,2-1.3,4-2.1,6.1
	c-0.7-1.2-1.3-2.5-2.1-3.7C225.2,410.5,224.5,409.3,223.7,408.1L223.7,408.1z M200.6,408.1c-0.7,1.2-1.5,2.4-2.2,3.7
	c-0.7,1.2-1.4,2.5-2,3.7c-0.8-2.1-1.6-4.1-2.1-6.2C196.3,408.9,198.4,408.4,200.6,408.1L200.6,408.1z M212.2,407.4
	c2.3,0,4.7,0.1,7,0.3c1.3,1.8,2.6,3.8,3.7,5.9c1.2,2.1,2.2,4.1,3.2,6.2c-1,2.1-2.1,4.1-3.2,6.2c-1.2,2.1-2.5,4-3.7,5.9
	c-2.3,0.2-4.6,0.3-7,0.3c-2.3,0-4.7-0.1-7-0.3c-1.3-1.8-2.6-3.8-3.7-5.9s-2.2-4.1-3.2-6.2c1-2.1,2.1-4.1,3.2-6.2
	c1.2-2.1,2.5-4,3.7-5.9C207.5,407.5,209.8,407.3,212.2,407.4L212.2,407.4z M212.1,399c1.5,1.5,2.9,3.1,4.2,4.8l0.1,0.2
	c-1.4-0.1-2.8-0.1-4.3-0.1c-1.5,0-2.9,0-4.3,0.1C209.3,402.2,210.7,400.5,212.1,399L212.1,399L212.1,399z M196.6,389.3
	c5.2,1,9.7,3.6,13,7.2l0,0c-2.2,2.3-4.3,4.9-6.3,7.5l-0.2,0.2c-3.7,0.4-7.1,1-10.4,1.8l0.5-0.1c-0.3-1.6-0.7-3.1-0.8-4.5
	c-0.7-5.9,0.2-10.6,2.2-11.7C195.4,389.5,196,389.4,196.6,389.3L196.6,389.3L196.6,389.3z M227.6,389.3L227.6,389.3L227.6,389.3
	c0.7,0,1.2,0.2,1.7,0.4l0,0c2.1,1.2,3.1,5.8,2.3,11.7c-0.2,1.5-0.4,3-0.8,4.5c-2.7-0.7-6.1-1.3-9.5-1.7H221
	c-2.1-2.9-4.2-5.4-6.5-7.8l0,0c3.3-3.7,7.8-6.3,12.9-7.3H227.6L227.6,389.3z M227.6,385.8c-6.2,0.9-11.6,4-15.5,8.3l0,0
	c-4-4.4-9.3-7.3-15.4-8.3h-0.2h-0.1c-1.2,0-2.4,0.3-3.5,0.9l0,0c-4.4,2.5-5.4,10.3-3.1,20.2c-9.7,3-15.9,7.8-15.9,12.8
	s6.3,9.8,16,12.8c-2.2,9.9-1.2,17.8,3.1,20.2c1,0.6,2.1,0.9,3.3,0.9c0.1,0,0.1,0,0.2,0l0,0c6.2-0.9,11.6-4,15.5-8.3l0,0
	c4,4.4,9.3,7.3,15.4,8.3h0.2c0,0,0.1,0,0.2,0c1.2,0,2.4-0.3,3.4-0.9l0,0c4.4-2.5,5.4-10.3,3.1-20.2c9.7-3,15.9-7.8,15.9-12.8
	c0-5-6.3-9.8-16-12.8c2.2-9.8,1.2-17.8-3.1-20.2C230.1,386.1,228.9,385.7,227.6,385.8C227.7,385.8,227.7,385.8,227.6,385.8
	L227.6,385.8L227.6,385.8z M219.3,419.8c0,3.9-3.1,7.1-7.1,7.1s-7.1-3.1-7.1-7.1c0-3.9,3.1-7.1,7.1-7.1c2,0,3.7,0.8,5,2.1l0,0
	C218.4,416,219.3,417.8,219.3,419.8L219.3,419.8L219.3,419.8L219.3,419.8z"/>
<g>
	<path class="st3" d="M67.9,341.8h15.6v1.2H69.4v9.3h13.3v1.2H69.4v10.2h14.3v1.2H67.9V341.8z M84.9,341.8h1.7l7.3,10.2l7.5-10.2
		l10.2-13l-16.8,24.3l8.6,12h-1.7l-7.8-10.9L86,365.1h-1.7l8.7-12L84.9,341.8z M104.1,343v-1.2h17.8v1.2h-8.2v22h-1.4v-22H104.1z
		 M48.4,341.8h1.8l24.6,36.8l-10.2-13.5L50,343.6l-0.1,21.5h-1.4L48.4,341.8L48.4,341.8z M121.7,363.4c-0.3,0-0.5-0.2-0.5-0.5
		s0.2-0.5,0.5-0.5c0.3,0,0.5,0.2,0.5,0.5S122,363.4,121.7,363.4z M123.1,362.1h0.7c0,0.4,0.3,0.7,0.7,0.7c0.5,0,0.7-0.3,0.7-0.8
		v-3.6h0.7v3.6c0,1-0.6,1.6-1.6,1.6C123.7,363.5,123.1,362.9,123.1,362.1z M127.2,362h0.7c0.1,0.5,0.5,0.7,1.2,0.7
		c0.7,0,1.1-0.3,1.1-0.7s-0.3-0.6-1-0.7l-0.7-0.2c-0.9-0.2-1.3-0.7-1.3-1.4c0-0.9,0.7-1.5,1.8-1.5c1,0,1.7,0.6,1.8,1.4h-0.7
		c-0.1-0.5-0.5-0.7-1.1-0.7c-0.6,0-1,0.3-1,0.7c0,0.3,0.2,0.6,0.9,0.7l0.6,0.2c1,0.2,1.5,0.7,1.5,1.4c0,1-0.7,1.6-1.9,1.6
		C127.9,363.5,127.2,362.9,127.2,362z"/>
</g>
<path class="st3" d="M387.6,360L353,325.4c-0.9-0.9-2.2-1.5-3.6-1.5c-1.4,0-2.7,0.6-3.6,1.5l0,0l-7.2,7.2l9.1,9.1
	c0.6-0.2,1.2-0.3,2-0.3c3.4,0,6,2.7,6,6c0,0.7-0.1,1.4-0.3,2.1v-0.1l8.8,8.8c0.6-0.2,1.2-0.3,2-0.3c3.4,0,6,2.7,6,6s-2.7,6-6,6
	s-6-2.7-6-6c0-0.8,0.2-1.7,0.5-2.3l0,0l-8.2-8.2v21.6c2,1,3.4,3.1,3.4,5.4c0,3.4-2.7,6.1-6.1,6.1c-3.4,0-6.1-2.7-6.1-6.1
	c0-1.7,0.7-3.2,1.7-4.3l0,0c0.6-0.6,1.2-1,2-1.3l0,0V353c-2.2-0.9-3.7-3.1-3.7-5.6c0-0.8,0.2-1.7,0.5-2.4l0,0l-8.9-9l-23.7,23.9
	c-0.9,0.9-1.5,2.2-1.5,3.6c0,1.4,0.6,2.7,1.5,3.6l34.6,34.6c0.9,0.9,2.2,1.5,3.6,1.5s2.7-0.6,3.6-1.5l34.4-34.4
	c0.9-0.9,1.5-2.2,1.5-3.6C389.1,362.2,388.5,360.9,387.6,360L387.6,360L387.6,360z"/>
<path class="st3" d="M454,286.6v33.4h66.6v-66.6H454V286.6z M507.7,283.9c1.7,0.4,3,1.2,4.1,2.4c0.6,0.7,1.5,1.8,1.6,2.1
	c0,0.1-2.9,2.1-4.6,3.1c-0.1,0.1-0.3-0.2-0.6-0.7c-0.8-1.2-1.7-1.8-3.1-1.9c-2-0.2-3.3,0.9-3.3,2.7c0,0.4,0.1,0.8,0.2,1.2
	c0.4,0.9,1.2,1.5,3.9,2.6c4.8,2.1,6.9,3.4,8.1,5.4c1.4,2.1,1.7,5.6,0.7,8.1c-1.1,2.8-3.7,4.6-7.3,5.3c-1.2,0.2-3.9,0.2-5-0.1
	c-2.6-0.5-5.2-1.8-6.8-3.6c-0.6-0.7-1.8-2.5-1.7-2.6c0-0.1,0.3-0.2,0.6-0.4c0.3-0.2,1.4-0.8,2.5-1.4l1.9-1.1l0.4,0.6
	c0.6,0.8,1.8,2.1,2.6,2.4c2.1,1.2,5,1,6.5-0.3c0.6-0.5,0.9-1.2,0.9-2c0-0.7-0.1-1.1-0.5-1.7c-0.5-0.7-1.6-1.3-4.5-2.6
	c-3.5-1.5-5-2.4-6.3-3.9c-0.8-1-1.5-2.1-1.8-3.3c-0.2-0.9-0.3-3.3-0.1-4.2c0.7-3.3,3.2-5.6,6.9-6.4
	C503.8,283.5,506.6,283.6,507.7,283.9L507.7,283.9z M492.1,286.7v2.7h-8.7v24.6h-6.1v-24.6h-8.7v-2.6c0-1.5,0-2.7,0.1-2.7
	c0-0.1,5.3-0.1,11.7-0.1h11.6L492.1,286.7z"/>
<path class="st3" d="M509.5,401.2v-0.2h-0.4v0.2H509.5z M512.1,407.3L512.1,407.3l0.2,0.1c0-0.1,0-0.2,0.1-0.4v-0.2
	C512.3,406.8,512.2,407,512.1,407.3L512.1,407.3z M502.1,415c0-0.2-0.7-1.1-2.1-2.6c0-0.2,0.4-0.7,1.4-1.2l2.7-2.4
	c0.6-0.7,1-2,1.1-3.7v-0.4c-0.1-1.2-1-2.1-2.6-2.9c-1-0.7-2.7-1-5.2-1.1c-2.1,0.2-4.8,0.9-8.2,2.2c-1,0.7-2.1,1.4-3.1,2v0.2
	c0.1,0,0.2-0.1,0.3-0.2c0.1,0,0.2,0,0.2,0.2l0.2-0.1h0.1v0.1c0,0.1-0.7,0.7-2.1,1.7l0.1,0.2h-0.1l-0.2-0.1c0,0.1-0.1,0.1-0.3,0.1
	v0.1l0.2,0.2c-0.1,0-0.2,0-0.3-0.1c-0.4,0.1-0.7,0.2-1,0.5l0.1-0.6c0.5-2.1,0.8-4,1-5.6v-0.1c-0.4-0.2-0.7-0.6-1-0.9
	c0-0.2,0-0.3,0-0.4v-0.1h-0.1c-1.1,1.6-3.1,4.4-6.2,8.2c-2.3,2.7-3.6,4.3-3.6,4.6c-1,1-1.4,1.6-1.3,1.8c-0.2,0.2-0.3,0.3-0.3,0.5
	c-0.1,0-0.1,0-0.2-0.1c-0.4,0.7-1.1,1.1-1.8,1.2l-0.8,0.2c-0.1,0-0.2,0.1-0.2,0.2v0.1l0.3-0.1v0.1l-0.7,0.2l-1.2,0.2l-0.7,0.1
	c-0.1,0.1,0.5,0,0.2,0l-0.8,0.2c-0.5,0.1-0.7,0.1-0.8-0.1H465c0,0.1,0,0.2,0,0.2v-0.2l-0.7,0.2c0-0.3-0.9-1.4-2.6-3.3
	c0-0.4,0.6-0.9,1.8-1.7l3.6-3.1c0.7-1,1.2-2.6,1.4-4.9v-0.5c-0.2-1.6-1.3-2.9-3.5-3.8c-1.2-0.9-3.6-1.3-6.9-1.4
	c-2.7,0.2-6.4,1.2-10.7,2.9c-1.3,1-2.7,1.8-4.1,2.6v0.2c0.2,0,0.2-0.1,0.4-0.2c0.2,0,0.2,0.1,0.3,0.2l0.2-0.2h0.2v0.2
	c0,0.1-1,0.9-2.9,2.2l0.2,0.2h-0.2l-0.3-0.1c0,0.1-0.1,0.2-0.4,0.2v0.2l0.3,0.3c-0.2,0-0.3,0-0.4-0.1c-0.7,0.1-1.2,0.5-1.8,1.4
	l0.2,0.2c0.5-0.5,0.8-0.7,0.9-0.7v0.4c-0.2,0-0.2,0.1-0.4,0.2l0.3,0.5c0.7-0.7,1.3-1.2,2.1-1.8c0.4,0.1,0.6,0.2,0.6,0.3h0.2
	c2.1-1.6,4.1-2.6,6.2-3.4v0.2c-0.4,0.6-0.7,0.8-0.7,0.9c0,0.2,0.1,0.3,0.2,0.5c0,0.3-0.9,2.7-2.8,7c-4.3,10.1-7.8,17.5-10.8,22.4
	c0,0.1,0.1,0.2,0.2,0.4c0.7-0.2,1.2-0.3,1.4-0.5h0.2v0.2h0.2l0.2-0.2c0,0.1,0.1,0.1,0.2,0.1v0.2c0,0.2-0.1,0.7-0.4,1.2
	c-0.3,0.3-0.6,1-0.9,2.1v0.1h0.2c1.2-1.3,2.1-2.6,2.6-3.8c3.4-1,6-2,7.8-3c1.8-0.2,3.2-0.7,4.1-1.4v-0.2l-0.7,0.2H450v-0.2
	c1.3-0.2,2.2-0.5,2.7-0.9c2.6-2,4.5-3.4,5.9-4.2c2.7-2,4.5-4,5.3-5.9l0.4-0.1c0.4,0,0.6,0,0.7,0c0-0.1,0-0.1,0.1-0.1
	c0.6-0.1,0.3,0,0.7-0.1l1-0.2c-0.1,0-0.1,0.1-0.1,0.1l0.2-0.1h-0.1h0.2h-0.1c0.1,0,0.2,0,0.4,0l0.1,0.3l-4.6,7.3l-1,1.2l-0.5,1.7
	h0.1l0.5-0.2l-0.2,0.7l0.1,0.2l0.1,0.2c-0.1,0-0.1,0.1-0.1,0.1v0.1h0.2c0.3-0.2,0.4-0.5,0.4-0.7c0.2,0.1,0.4,0.1,0.7,0.1v0.1
	c-0.2,0.1-0.3,0.2-0.3,0.5v0.1h0.1c1.7-1.8,5.8-8.1,9.2-12.4c-0.1-0.5,1.7-1.1,5.2-1.9h0.1c0.2,0.6-0.2,1.9-0.8,4
	c-0.4,1.3-0.7,2-0.7,2.1c-0.6,1.7-0.8,2.6-0.8,2.8l-1.2,4.1c-0.8,2.1-1.4,4.4-1.9,6.7c0.1,0,0.2,0,0.3,0l0.2-0.2
	c0,0.1,0.1,0.1,0.2,0.1l-0.1-0.3h0.6c0.2,0,0.3-0.2,0.4-0.6c0-0.6,0.1-0.9,0.3-0.9c0.3-1.3,0.6-2,0.7-2.1c0.3-1.3,0.6-2.1,0.7-2.2
	c0.5-1.7,0.8-2.6,1.1-2.6v0.2l-0.3,0.9c-0.6,2.7-1.2,4.9-1.8,6.4l0.2,0.7h0.1c1.5-3.2,3.6-9.7,6.5-19.2c0.1-0.8,0.5-1.6,1.2-2
	l-0.2-0.2v-0.1c0.3-0.1,0.6-0.2,0.7-0.4c0-0.1-0.3-0.2-0.8-0.3l1.4-6c0.2-0.2,0.3-0.3,0.5-0.4v0.3c-0.1,0-0.2,0.1-0.3,0.1l0.2,0.4
	c0.5-0.5,1-1,1.6-1.4c0.2,0.1,0.4,0.2,0.4,0.2h0.2c1.4-1.1,3.1-1.9,4.7-2.6v0.2c-0.2,0.4-0.5,0.7-0.6,0.7c0,0.2,0.1,0.2,0.1,0.4
	c0,0.2-0.7,2.1-2.1,5.4c-3.2,7.7-5.9,13.3-8.2,17c0,0.1,0.1,0.2,0.2,0.3c0.6-0.1,0.9-0.2,1-0.4h0.1v0.2h0.2l0.2-0.1
	c0,0.1,0.1,0.1,0.2,0.1v0.2c0,0.2-0.1,0.5-0.3,0.9c-0.2,0.2-0.5,0.7-0.7,1.6v0.1h0.2c0.8-0.9,1.5-1.8,2-2.9c2.6-0.7,4.5-1.5,5.9-2.2
	c1.4-0.1,2.4-0.5,3.1-1.1v-0.1l-0.5,0.2h-0.1v-0.1c1-0.2,1.7-0.4,2.1-0.7c2-1.5,3.5-2.6,4.5-3.2C500.9,419.3,502.3,417.1,502.1,415
	L502.1,415z M501.6,415.2l0.1,0.8c-0.1,0.2-0.2,0.3-0.2,0.3l-0.1-1.4C501.4,415,501.6,415.1,501.6,415.2L501.6,415.2z M440.3,408.6
	h-0.2v-0.2l0.6-0.1v0.2C440.6,408.4,440.4,408.5,440.3,408.6L440.3,408.6z M437.6,435.9c-0.2-0.1-0.6-0.2-0.9-0.2v-0.4
	c0-0.2,0.1-0.2,0.2-0.3c0.2,0,0.2,0.1,0.3,0.4c0.5-0.6,0.7-0.9,0.7-0.9l0.3,0.1C438.3,435.4,438,435.9,437.6,435.9L437.6,435.9z
	 M466.8,405.4c-0.1,0-0.4-0.4-0.8-1.2v-0.2c0.2,0,0.5,0.4,0.8,1.2V405.4z M466.3,402.4l-0.1,0.2l-4-1.7
	C464.9,401.1,466.3,401.5,466.3,402.4L466.3,402.4z M449.7,416.7h-0.6v-0.2h0.6V416.7z M449.2,408.1L449.2,408.1l0.1,0.4
	c-0.1,0-0.2,0.2-0.5,0.6v-0.2C449.1,408.5,449.2,408.3,449.2,408.1L449.2,408.1z M448,410.9l0.1,0.5h-0.2l-0.1-0.5H448z
	 M447.3,411.8h0.2c0,0.4-0.2,0.7-0.4,0.7H447C447.3,412.2,447.4,412,447.3,411.8z M446.9,413.2h0.2v0.1l-0.2,0.4h-0.2v-0.1
	C446.9,413.6,446.9,413.5,446.9,413.2L446.9,413.2z M446.4,414.5l-0.1,0.7h-0.1l-0.1-0.7H446.4z M441.9,427.4
	c-0.2,0.9-0.4,1.4-0.6,1.4v-0.1C441.3,428.2,441.5,427.8,441.9,427.4z M441.1,429.2L441.1,429.2c0,0.2-0.1,0.3-0.2,0.3v-0.1
	C440.8,429.3,440.9,429.3,441.1,429.2z M440.8,433l0.4-0.1v0.2c-0.2,0-0.3,0.1-0.4,0.2h-0.2C440.6,433,440.7,433,440.8,433
	L440.8,433z M452.8,429.3c-2.4,1.2-3.8,2-4.2,2.4c-2.6,0.9-3.8,1.4-3.8,1.7c-2.3,0.9-3.8,1.6-4.5,2c-0.2,0-0.5-0.1-0.7-0.2
	c0-0.5,0.2-0.8,0.7-1.2c0.4,0,0.7,0,1.2,0.2c0.7-0.3,1.4-0.6,2.2-0.7v-0.2l-0.8,0.1c0.1-0.2,0.9-0.5,2.4-1.2l0.4-0.1v0.2
	c-0.7,0.1-1.1,0.2-1.2,0.7c0,0.2,0.1,0.2,0.3,0.2c0.6-0.3,0.8-0.5,0.8-0.6c1-0.2,3.9-1.7,8.5-4.5v0.2
	C454,428.3,453.6,428.7,452.8,429.3L452.8,429.3z M445.7,431.6c0.7-0.1,1.2-0.3,1.7-0.8c0.2,0,0.3,0.1,0.3,0.2c-0.3,0-1,0.3-1.9,0.8
	h-0.2V431.6z M457.2,422.7l-3.6,2.8c-2.6,1.7-4,2.6-4.3,2.6c-4.2,2.3-6.9,3.6-7.9,3.6h-0.2c0.1-0.5,2-4.3,5.6-11.6
	c1.7-0.2,4.1-0.9,7.6-2.2l0.8-0.1c1.7-0.2,3.1,0.2,3.9,1l0.1,0.5C458.7,421.3,458,422.4,457.2,422.7L457.2,422.7z M450.2,418.8
	l0.6-0.1v0.2L450.2,418.8L450.2,418.8z M458.3,417.4h0.4c0.4,0.2,0.6,0.3,0.6,0.5v0.1C459,418,458.6,417.9,458.3,417.4z
	 M459.5,410.9c-0.4,0.4-1.4,1.2-3.1,2.3c-0.6,0.1-2.6,0.8-6.1,2.4c-0.2-0.1-0.4-0.1-0.6-0.1v-0.2c-0.1-0.5,0.2-1.2,0.7-1.9
	c0.2-1.5,0.6-2.3,0.9-2.5l3-6.6c0-0.4,0.6-0.7,1.9-0.9l0.4-0.1v0.4c1.2-0.2,2.1-0.3,2.4-0.3c2.3-0.2,3.6,0.2,3.6,1.4h0.2l-0.1-0.7
	h0.3c0.7,0.4,1.1,0.8,1.1,1.4c0,0.4-0.2,0.8-0.6,1.4c-0.2,0-0.2-0.1-0.3-0.4H463l-0.1,0.8c-1.2,1.8-2.1,2.7-2.6,2.7
	C459.8,410.6,459.6,410.9,459.5,410.9L459.5,410.9z M461.2,415.6c-0.2-0.2-0.4-0.2-0.6-0.2V415h0.2l0.6,0.3
	C461.6,415.5,461.5,415.5,461.2,415.6z M463.1,417.8c0.2,0.1,0.4,0.2,0.4,0.3h-0.1l0,0h-0.1l-0.2,0.2L463.1,417.8z M463.3,418.9
	L463.3,418.9l0.3-0.2v0.1L463.3,418.9z M464.1,419.8c0.3-0.1,0.5-0.1,1.2-0.2v0.1L464.1,419.8C464.1,419.9,464.1,419.9,464.1,419.8
	L464.1,419.8z M465.4,420.3c-0.5,0.1-0.4,0-1.2,0.2v-0.1l1-0.3l0.5-0.1v0.2C465.4,420.2,465.6,420.2,465.4,420.3L465.4,420.3z
	 M466.4,420.1c-0.1,0-0.2,0-0.2-0.2l0.3-0.1c0.1,0,0.2,0,0.2,0.2L466.4,420.1z M469.4,416.9L469.4,416.9l0.5-0.2l0.1,0.2H469.4z
	 M472.5,436.3c0-0.1,0-0.2,0-0.3h0.1c0.2,0,0.2,0,0.2,0.2v0.1L472.5,436.3z M474.8,417.8h-0.2c-0.3,0.1-0.7,0.2-0.9,0.3l-0.2,0.1
	c-0.1,0-0.2,0-0.2-0.2l1.5-0.3l0.5-0.2l0.2,0.2C475.1,417.5,474.9,417.6,474.8,417.8L474.8,417.8z M475.9,417.4L475.9,417.4
	c0.1-0.1,0.2-0.2,0.2-0.2l1.1-0.2v0.1C476.7,417.1,476.3,417.2,475.9,417.4L475.9,417.4z M476.1,415.2c-0.1,0-0.2,0.1-0.3,0.2
	c0-0.1-0.2-0.1-0.4,0c-0.1-0.2,0.7-0.5,2.3-0.9h0.2l0.1,0.2C476.8,415,476.2,415.2,476.1,415.2z M478.9,412.2
	c-0.1,1.2-0.6,2-1.4,2.2v-0.1l-0.7,0.2l-0.3,0.1c-0.2,0.1-0.3,0-0.4,0l-0.1-0.2c0-0.1,1-1.6,3.1-4.3l0.2,0.1
	C479.4,410.5,479.2,411.2,478.9,412.2L478.9,412.2z M483.9,407.9L483.9,407.9l-0.1-0.2l0.4-0.1v0.1
	C484.1,407.8,484,407.9,483.9,407.9z M481.9,428.7c-0.2-0.1-0.4-0.2-0.7-0.2v-0.3c0-0.1,0.1-0.2,0.2-0.2c0.2,0,0.2,0.1,0.2,0.2
	c0.2-0.2,0.4-0.5,0.6-0.7l0.2,0.1C482.3,428.3,482.1,428.6,481.9,428.7L481.9,428.7z M504,405.5c-0.1,0-0.3-0.3-0.7-1v-0.2
	c0.2,0,0.4,0.3,0.7,0.9V405.5z M503.7,403.2l-0.1,0.2l-3-1.2C502.6,402.2,503.6,402.6,503.7,403.2L503.7,403.2z M490.9,414.1h-0.4
	v-0.2h0.4V414.1z M490.6,407.5L490.6,407.5l0.1,0.3c-0.1,0-0.2,0.2-0.4,0.4V408C490.5,407.8,490.6,407.6,490.6,407.5L490.6,407.5z
	 M489.7,409.6v0.4h-0.1L489.7,409.6L489.7,409.6z M489.3,410.4h0.2c0,0.3-0.1,0.5-0.2,0.5h-0.1C489.2,410.8,489.2,410.6,489.3,410.4
	L489.3,410.4z M489,411.4L489,411.4L489,411.4l-0.1,0.4h-0.2v-0.1C488.8,411.7,489,411.7,489,411.4z M488.6,412.3l-0.1,0.5h-0.1
	l-0.1-0.5H488.6z M485.1,422.1c-0.2,0.7-0.2,1-0.4,1.1v-0.1C484.7,422.8,484.8,422.5,485.1,422.1z M484.5,423.6L484.5,423.6
	c0,0.2-0.1,0.3-0.2,0.3v-0.1C484.3,423.6,484.3,423.6,484.5,423.6z M484.3,426.4h0.3v0.1c-0.1,0-0.2,0.1-0.3,0.1h-0.2
	C484.1,426.5,484.2,426.4,484.3,426.4L484.3,426.4z M493.4,423.6c-1.8,0.9-2.8,1.5-3.1,1.8c-1.9,0.7-2.9,1.1-2.9,1.2
	c-1.7,0.7-2.8,1.2-3.4,1.5c-0.2,0-0.4-0.1-0.6-0.2c0-0.3,0.2-0.7,0.5-0.8c0.2,0,0.6,0,0.8,0.1c0.3-0.2,0.9-0.3,1.7-0.5v-0.2
	l-0.7,0.1c0.1-0.1,0.7-0.4,1.9-0.9h0.3v0.1c-0.6,0-0.9,0.2-0.9,0.5c0,0.1,0.1,0.2,0.2,0.2c0.4-0.2,0.6-0.4,0.6-0.5
	c0.7-0.1,2.9-1.2,6.4-3.4v0.2C494.3,422.9,494,423.1,493.4,423.6L493.4,423.6z M488,425.4c0.5-0.1,1-0.2,1.3-0.6
	c0.2,0,0.2,0,0.2,0.2c-0.2,0-0.7,0.2-1.4,0.6h-0.1L488,425.4z M496.7,418.6l-2.7,2.1c-2,1.3-3.1,2-3.3,2c-3.2,1.7-5.2,2.6-6,2.7
	h-0.1c0.1-0.4,1.6-3.3,4.3-8.8c1.2-0.1,3.1-0.7,5.7-1.7l0.7-0.1c1.3-0.1,2.3,0.2,3,0.7v0.4C497.9,417.5,497.3,418.4,496.7,418.6z
	 M491.4,415.6h0.4v0.1l-0.4,0.1V415.6z M497.6,414.6h0.3c0.3,0.2,0.5,0.2,0.5,0.4v0.1C498.1,415,497.8,415,497.6,414.6z
	 M498.4,409.7c-0.2,0.3-1.1,0.9-2.3,1.7c-0.4,0.1-2,0.7-4.6,1.8c-0.2-0.1-0.2-0.1-0.4-0.1v-0.2c0-0.4,0.1-0.9,0.5-1.5
	c0.2-1.2,0.4-1.7,0.7-1.9l2.2-5c0-0.3,0.5-0.6,1.4-0.7h0.3v0.3c0.9-0.2,1.6-0.2,1.8-0.2c1.8-0.2,2.7,0.2,2.8,1.1h0.2v-0.5h0.2
	c0.5,0.2,0.7,0.7,0.8,1c0,0.2-0.1,0.7-0.4,1.1c-0.2,0-0.2-0.1-0.2-0.2h-0.2l-0.1,0.6c-0.9,1.4-1.6,2.1-2,2.1
	C498.7,409.4,498.5,409.7,498.4,409.7L498.4,409.7z M499.4,413.1v-0.3h0.2l0.5,0.2c0,0.2-0.1,0.2-0.2,0.2
	C499.6,413.1,499.5,413.1,499.4,413.1L499.4,413.1z M461.7,432.7l-0.2,0.1l-0.2,0.2c0,0.1,0.1,0.2,0.2,0.2s0.2-0.1,0.2-0.2V432.7z
	 M460.9,431.1L460.9,431.1c0.1,0.1,0.2,0,0.2-0.2v-0.1C461,430.9,460.9,431,460.9,431.1z M466.6,417.5l0.2-0.1l-0.1-0.2l-0.2,0.1
	L466.6,417.5z M540,423.7c-2.5,0.6-2.7,0.4-3.3,0.5v0.2h0.2h0.1l0,0l0.2-0.1c2.4-0.2,2.7-0.2,2.6-0.4L540,423.7z M526.8,425.5v0.2
	l0,0V425.5L526.8,425.5z M525.2,420.2l-0.2-0.1c-0.1,0.2-0.2,0.6-0.2,0.8v0.1C525,421,525.1,420.7,525.2,420.2L525.2,420.2z
	 M540.5,423.6v0.2l0.3,0.1v-0.2L540.5,423.6z M523.7,425.7l-0.5-0.1l-0.1,0.2v0.1l3.3-0.2v-0.2L523.7,425.7z M522.2,418.6
	L522.2,418.6L522.2,418.6h-0.3l0.1,0.2C522.2,418.8,522.3,418.7,522.2,418.6L522.2,418.6z M542.1,422.2h0.2c0.1,0,0.1-0.1,0.1-0.2
	l-0.1-0.2c-0.4,0-0.9,0.1-1.2,0.3v-0.1l-0.7,0.1c0-0.2-0.1-0.3-0.2-0.3h-0.3c-0.4,0-0.6,0-0.8,0.2c0-0.1,0-0.1-0.1-0.1h-0.4
	l-0.2,0.2c0-0.1,0-0.1-0.1-0.1l-0.2,0.1V422l-0.6-0.1h-0.1v0.2l0.2,0.1h0.2c0.1,0.1,0.2,0.1,0.3,0.1l0.2-0.1v0.1
	c-1.2,0.3-1.2,0.2-2.1,0.4c-0.1-0.1-0.2-0.1-0.2-0.1l0,0c-0.1,0-0.2-0.1-0.2-0.2l0.5-0.1c0,0,0.1,0,0.3,0.1c0.4-0.2,0.4-0.2,0.6-0.2
	v-0.2c-1.2,0.2-0.7,0.1-2.3,0.2h-0.1V422c2-0.2,1.3-0.1,2.1-0.3c0,0.1,0,0.1,0.1,0.1c0.1-0.1,0.2-0.1,0.2-0.2h0.2
	c0.7-0.1,0.9,0.1,2.3-0.3v0.1l0.2-0.1h0.2c0-0.2,0.3-0.2,0.4-0.2v-0.2c-2.5,0.5-3.1,0.3-3.8,0.6v-0.1c-0.7,0.1-0.7,0.1-0.8,0.1
	c-0.1,0-0.2,0.1-0.2,0.1c0-0.1,0-0.1-0.1-0.1l0,0l-2.1,0.3c0-0.1,0-0.1-0.1-0.1c-1.1,0.2-0.7,0.2-2.2,0.4c-0.1,0-0.2,0.1-0.2,0.1
	c0-0.1,0-0.1-0.1-0.1l-0.9,0.1l-0.6,0.2c0-0.1,0-0.1-0.1-0.1c-0.3,0.1-0.7,0.2-0.9,0.2l0,0c-0.2,0,0.1,0,0-0.1l-0.2,0.1
	c-0.2,0-0.1,0-1,0c-1.6,0.2-1.4,0.2-1.6,0.2l-0.6-0.1c0,0.1,0,0.1-0.1,0.1c-0.7-0.1-1-0.2-1-0.3c0.1-0.7,0.2-1,0.4-1h0.1l-0.1,0.2
	h0.1c0.2-0.1,0.3-0.2,0.3-0.3v-0.2h-0.2v-0.2c0-0.2,0-0.2,0.1-0.4l0.5-0.7v0.2h0.2v-0.2l-0.1-0.2c0.2-0.2,0.2-0.2,0.4-0.2v-0.1h-0.3
	v-0.3c0.7-1.2,0.9-2,0.9-2.2l0.2,0.1c0.1,0,0.2-0.1,0.2-0.2h-0.2v-0.1c0-0.2,0-0.2,0.1-0.4c0.3-0.3,0.5-0.7,0.5-1.1
	c0.1,0,0.1,0,0.1,0.1c0.2-0.2,0.5-0.6,0.7-1.3c0.5-0.9,1.2-2.7,2.1-5.4c1.8-4.8,1.7-5.3,2-6.4H532c0,0.2,0,0.2-0.1,0.4
	c-0.1,0-0.2-0.1-0.3-0.1v-0.1c0-0.4,0.2-0.9,0.5-1.5h0.1l0.2,0.7h0.2c0-0.1,0.1-0.3,0.2-0.8c0-0.1-0.1-0.2-0.2-0.2l-0.2,0.1
	c0-0.4,0-0.7,0-1.2h-0.1c-0.2-0.2-0.2-0.3-0.2-0.4l-1.2,0.1c0-0.1-0.1-0.2-0.1-0.3c0-0.1,0.2-0.2,0.7-0.3l0.2,0.1l0.2-0.2
	c0,0.1,0,0.1,0.1,0.1l0.2-0.2c0,0.1,0.1,0.1,0.2,0.1h0.1v-0.2c-0.2,0-0.6,0-1.2,0l-0.2,0.2v-0.1c-5.4,0.4-8.5,0.7-9.2,0.7
	c-0.1,0-0.5,0-1.2,0c0,0.1-0.1,0.2-0.2,0.2l-0.2-0.1l-0.8,0.2c-0.2,0-0.5,0-0.9,0c-0.1,0.1-0.2,0.2-0.4,0.2c-0.1,0,1.2-0.1,2.3-0.2
	c-0.2,0.1-0.4,0.2-0.6,0.2s-0.3,0-0.5-0.1c-0.6,0.2-1.2,0.3-1.7,0.4l-0.2-0.1l-3.8,0.6c-0.2-0.1-0.3-0.1-0.5-0.1
	c-0.2,0-0.6,0.1-1,0.2l-1.8,0.7l0.1,0.2c0.2,0,0.2-0.1,0.4-0.2l0.7,0.1l-0.1,0.6c-0.6,0.2-0.9,0.7-1,1.2c-0.9,0.4-1.3,0.7-1.3,0.8
	v0.1h0.1l0.2-0.2l0.2,0.3v0.5c0,0.2-1.5,3.3-4.5,9.6c-2.6,6-4,9.2-4.1,9.8c-0.9,0.2-1.4,0.7-1.6,1.1c0,0.2,0.2,0.2,0.8,0.3v0.2
	l-0.2,0.4l0.1,0.5c0,0.2,0.7,0.4,2,0.6c0-0.1,0-0.2,0.1-0.2c0,0.2-0.1,0.8-0.2,1.7h0.1c0.5-0.7,0.8-1.2,0.7-1.5h0.1
	c0.2,0,0.2,0.2,0.4,0.5c-0.2,0.1-0.7,1.3-1.7,3.9l0.2,0.2h0.1c1.2-3,1.9-4.7,2.2-5c1.6-0.2,4.2-0.4,8.1-0.8l0.2-0.2
	c0,0.1,0.1,0.1,0.2,0.1h0.2l0.2-0.2c0,0.1,0.1,0.1,0.2,0.1l2.9-0.2c0.7-0.1,1.2-0.3,1.1-0.7c0-0.1,0.4-0.2,1.4-0.3
	c0.1,0,0.2,0,0.4,0.1c0-0.1,0.5-0.2,1.4-0.2c0-0.5,0.2-0.7,0.5-0.7v-0.2c-0.3,0-0.6,0.1-0.9,0.2c-0.4,0-0.7-0.1-1.2-0.2
	c-0.1,0.1-0.2,0.1-0.4,0.2l-2.1,0.1l-0.2,0.1c0-0.1-0.1-0.1-0.2-0.1h-0.4l-0.2,0.2c0-0.1-0.2-0.2-0.7-0.2l-0.2,0.2h-0.5v-0.1
	c2.6-0.2,3.9-0.7,3.9-1.1c0.2,0,0.2,0.1,0.2,0.2l0.7-0.2v-0.2l-6.3,0.2c0,0.1,0,0.1-0.1,0.2l-0.7-0.1c-0.2,0-0.3,0.1-0.5,0.2
	l-0.2-0.1c-0.7,0.1-1.4,0.2-1.7,0.2c-0.6,0-1.2,0-1.8,0l-1.4,0.1l-0.7-0.1c0-0.4,0.7-2.5,2.4-6.1c0.5-1.2,0.9-2,1.3-2.3
	c0.2,0,0.2,0,0.4,0.1l1-0.3l0.5,0.1c0.8-0.1,1.8-0.3,3-0.7c0.2,0,0.4,0,0.7,0.1l0.7-0.2l2.2-0.2c1-0.1,2-0.2,3.1-0.7v-0.2
	c-0.4,0-0.7,0-0.7-0.2c0-0.3-0.3-0.4-0.9-0.4v-0.2l0.7-0.2l1.7-0.2v-0.2c-0.3,0-0.7,0-1,0v-0.2l0.7-0.1c0.2,0,0.2-0.1,0.2-0.2
	c-0.8,0-1.2,0-1.2-0.1c-5.9,0.2-8.9,0.3-8.9,0.2c-0.2,0-0.2,0.1-0.4,0.2l-0.2-0.2c1.6-3.3,2.5-5,2.7-5c0,0.2-0.1,0.4-0.2,0.7v0.1
	h0.2c0.7-1.5,1.2-2.2,1.6-2.3c1.9-0.2-0.2-0.2,3.7-0.9c0.2,0.1,0.2,0.1,0.3,0.1c1.6-0.3,3.7-0.7,6.5-1v-0.2l-1.5,0.2v-0.2
	c0.2,0,0.3-0.1,0.4-0.2v0.1c0.1,0,0.2-0.1,0.3-0.2c0.2,0,0.4,0,0.6,0.1c0.4-0.1,0.8-0.2,1.2-0.2l0.9-0.1c0.2-0.2,0.3-0.2,0.3-0.4
	v-0.1c-0.2,0-0.6,0-0.8-0.1c0-0.1,0.1-0.2,0.2-0.2l1.7-0.2l0.8-0.2c0,0.1,0.1,0.1,0.1,0.1c0.1,0,0.2-0.1,0.3-0.2h0.2
	c-0.1,0.2-0.2,0.5-0.3,0.9h-0.2c0-0.2-0.1-0.2-0.1-0.4h-0.1c-2.1,5.9-3.1,8.6-5,13c-0.3,1.2-0.7,1.8-0.9,1.9c0,0.1,0.1,0.2,0.2,0.2
	c0,0.6-0.1,1.2-0.4,1.7c-0.9,2.6-1.5,4-1.8,4.3l0.2,1.2c0,0.1-0.1,0.2-0.2,0.2h-0.2c0-0.3-0.2-0.5-0.4-0.5h-0.1
	c-0.2,0.4-0.5,0.9-0.7,1.5h0.2c0.2-0.2,0.4-0.4,0.4-0.7h0.4l0.2,0.1c-0.2,0.3-0.2,0.6-0.2,0.7l0.1,0.2l-0.2,0.7v0.1
	c0.2,0,0.6,0.1,0.8,0.2c0.2,0,0.4-0.1,0.7-0.2c0.2,0,1.2,0,2.7,0l0.7-0.2c1,0,1.2,0,1.9-0.1h0.3l0.2-0.1v0.1c0.9-0.1,0.9,0,1.6,0.1
	v0.1l-0.5,0.1v0.2c0.1,0,0.2-0.1,0.4-0.2c0.1,0,0.2,0.1,0.2,0.2c-0.2,0-0.4,0.1-0.7,0.2l-0.2-0.1c-0.3,0.1-0.2,0.1-0.5,0.2l-0.3-0.1
	c0,0.1,0,0.1-0.1,0.1c0,0.2,0.1,0.2,0.2,0.2h0.3l1.7-0.2l0.7-0.2c0,0.1,0,0.1,0.1,0.1l0.3-0.1l0.7-0.1c0.5,0,0.4-0.1,1.5-0.2
	c0-0.1,0-0.1,0.1-0.1v0.1c1.7-0.2,1.7-0.3,2.1-0.4l0,0c0.4-0.1,0.2-0.1,0.2-0.2c0,0.1,0,0.1,0.1,0.1h0.3v-0.2H536h-0.2l0,0
	c-0.4,0.1-0.4,0-0.7,0.1l-1.5,0.1v-0.1l0.8-0.1h0.3l0.2-0.1v0.1c1.2-0.1,1.6,0.2,6.9-0.9c0.2,0,0.2-0.2,0.4-0.7
	c-0.1,0-0.2,0-0.2-0.1c-0.4,0.2-0.7,0.1-1.6,0.2c-0.1,0-0.2-0.1-0.2-0.2v0.2h0.8c0.2,0,0.4,0,0.9-0.2
	C542.1,422.1,542,422.1,542.1,422.2L542.1,422.2z M502.2,422.8h-0.4c0-0.2,0.2-0.7,0.6-1.7h0.2C502.8,421.3,502.6,421.9,502.2,422.8
	z M502.7,421L502.7,421c0-0.2,0.1-0.3,0.2-0.3v0.1C502.9,420.9,502.8,421,502.7,421z M507.7,424.9L507.7,424.9l-0.7,0.2V425
	L507.7,424.9z M507,424.8c0,0.1-0.2,0.2-0.6,0.4l-0.7-0.1h-0.2v-0.2L507,424.8z M512.1,401.3h-0.4v-0.2c0-0.1,0.1-0.2,0.2-0.2h0.1
	l0.2,0.1C512.3,401.2,512.3,401.3,512.1,401.3L512.1,401.3z M517.9,400.2L517.9,400.2l0.1,0.2h-0.3
	C517.6,400.3,517.7,400.2,517.9,400.2L517.9,400.2z M516.4,400.7l-0.6-0.1v-0.1c0.7-0.1,1-0.2,1.5-0.2c0,0.1,0.1,0.1,0.2,0.1v0.2
	h-0.2c-0.2,0-0.3,0-0.5-0.1C516.7,400.6,516.5,400.7,516.4,400.7z M517.1,402.7L517.1,402.7l0.9-0.2v0.1L517.1,402.7z M518.1,402
	L518.1,402l0.5-0.2v0.2H518.1z M518.3,400.3L518.3,400.3v-0.2l1-0.1v0.1C518.9,400.2,518.6,400.3,518.3,400.3z M518.8,402.6v-0.2
	h0.5c0.2,0,0.2,0.1,0.2,0.2H518.8z M521.5,398.9l-0.6,0.2h-0.1c-0.2,0-0.7,0-1.1,0C520.5,398.9,521.3,398.9,521.5,398.9z
	 M520.9,401.4L520.9,401.4l-0.8,0.2v-0.1L520.9,401.4z M522.2,402.1c0-0.1-0.2-0.2-0.5-0.2l-0.8,0.2h-0.6c-0.2-0.1-0.2-0.2-0.2-0.2
	l0.7,0.1l1.7-0.2h0.8v0.1C522.9,401.9,522.5,402,522.2,402.1z M530.4,399.9h0.2c0.2-0.2,0.6-0.5,1-0.7c-0.3,1.2-0.7,2.2-1.4,2.8
	l-0.5-0.2C530,401.3,530.3,400.6,530.4,399.9L530.4,399.9z M529,402.3L529,402.3c-0.1,0.2-0.2,0.4-0.3,0.5v-0.3
	C528.8,402.5,528.9,402.4,529,402.3z M528.1,404.5c0.2-0.9,0.4-1.4,0.7-1.5v0.1c-0.1,0.8-0.2,1.2-0.5,1.2l0.1,0.5
	c-0.2,0.2-0.2,0.5-0.2,0.7H528l-0.1-0.7C527.9,404.8,528.1,404.7,528.1,404.5L528.1,404.5z M527.8,405.6c0,0.2-0.1,0.6-0.2,0.8h-0.1
	v-0.3C527.6,405.8,527.7,405.6,527.8,405.6z M521.3,424.6L521.3,424.6l0.2-0.1v0.3C521.3,424.8,521.3,424.7,521.3,424.6L521.3,424.6
	z M530.6,424.9C530.6,424.8,530.6,424.8,530.6,424.9H530v-0.1l0,0l1.2-0.1v0.1C530.9,424.7,530.7,424.8,530.6,424.9L530.6,424.9z
	 M530,424.5C530,424.6,530,424.6,530,424.5C529.9,424.6,529.9,424.6,530,424.5z M530,423.1h-0.7v-0.1l0.7-0.1l0.6-0.1
	c0,0.1,0,0.1,0.1,0.1c0.7-0.1,0.6-0.2,0.9-0.2c0.1,0,0.2,0.1,0.2,0.2L530,423.1z M532.5,422.9c-0.4,0-0.4-0.1-0.7,0v-0.1l0.7-0.1
	V422.9C532.3,422.8,532.6,422.8,532.5,422.9L532.5,422.9z M532.5,422.8L532.5,422.8l0.3-0.1v0.1H532.5z M533.3,422.7L533.3,422.7
	c0.1-0.1,0.2-0.2,0.2-0.2c0.2,0,0.2,0.1,0.2,0.2L533.3,422.7z M534.2,422.6L534.2,422.6l0.4-0.1v0.1H534.2z M534.8,422.6
	c0-0.1,0.1-0.2,0.2-0.2l0.1,0.2c0-0.1,0-0.1,0.1-0.1l0.1,0.2L534.8,422.6z M528.7,425.2V425h-0.1L528.7,425.2L528.7,425.2z
	 M542.9,421.5C543,421.5,543,421.4,542.9,421.5c-0.2,0,0,0-0.2,0v0.1L542.9,421.5l-0.2,0.1l-0.2,0.2l0.3-0.1l0,0V421.5L542.9,421.5z
	 M543.5,422L543.5,422l-0.1,0.2l0.5-0.1C544,422,543.6,422,543.5,422L543.5,422z M542.8,421.7L542.8,421.7L542.8,421.7z"/>
<polygon class="st0" points="519,515.3 453.8,515.3 421.3,571.8 453.8,628.2 519,628.2 551.6,571.8 "/>
<polygon class="st0" points="244.7,515.3 179.6,515.3 146.9,571.8 179.6,628.2 244.7,628.2 277.3,571.8 "/>
<polygon class="st0" points="122.3,441.2 57.2,441.2 24.6,497.7 57.2,554.2 122.3,554.2 154.9,497.7 "/>
<polygon class="st0" points="643.4,442.9 578.1,442.9 545.5,499.4 578.1,555.8 643.4,555.8 675.9,499.4 "/>
<polygon class="st0" points="381.1,588.5 316,588.5 283.4,645 316,701.4 381.1,701.4 413.7,645 "/>
<path class="st3" d="M103.7,510.6c2.6-0.2,4.7-2.6,4.6-5.4c-0.1-2.8-2.4-5-5.1-5H103c-2.9,0.1-5,2.5-5,5.4c0.1,1.4,0.7,2.6,1.5,3.5
	c-3.1,6.2-7.9,10.7-15.1,14.6c-4.9,2.6-9.9,3.6-15,2.9c-4.1-0.6-7.3-2.4-9.4-5.5c-3-4.6-3.2-9.6-0.7-14.5c1.7-3.6,4.5-6.1,6.3-7.4
	c-0.3-1.2-0.9-3.2-1.2-4.7c-13.4,9.7-12,23-7.9,29.1c3.1,4.6,9.2,7.5,16,7.5c1.8,0,3.7-0.2,5.5-0.7
	C89.7,528.1,98.6,521.1,103.7,510.6z M119.9,499c-7-8.3-17.3-12.8-29.1-12.8h-1.5c-0.8-1.7-2.6-2.8-4.5-2.8h-0.2
	c-2.9,0.1-5,2.5-5,5.4c0.1,2.8,2.4,5,5.1,5h0.2c2.1-0.1,3.8-1.4,4.5-3.1h1.7c7,0,13.6,2.1,19.6,6c4.6,3.1,7.9,7,9.7,11.9
	c1.6,3.9,1.5,7.7-0.2,11c-2.6,5-6.9,7.6-12.6,7.6c-3.7,0-7.2-1.1-9-2c-1,0.9-2.9,2.4-4.1,3.3c4,1.8,8,2.9,11.9,2.9
	c8.8,0,15.4-5,17.8-9.8C127,516.2,126.8,507,119.9,499z M73.1,512.2c0.1,2.8,2.4,5,5.1,5h0.2c2.9-0.1,5-2.5,5-5.4
	c-0.1-2.8-2.4-5-5.1-5h-0.2c-0.2,0-0.5,0-0.7,0.1c-3.8-6.3-5.4-13.2-4.8-20.6c0.3-5.5,2.2-10.4,5.4-14.4c2.6-3.5,7.8-5.1,11.3-5.2
	c9.7-0.2,13.9,12.1,14.2,17c1.2,0.2,3.2,0.9,4.6,1.4c-1.1-15-10.3-22.9-19.2-22.9c-8.3,0-15.9,6-19,14.9
	c-4.2,11.9-1.5,23.3,3.7,32.3C73.3,510.1,73,511.2,73.1,512.2z"/>
<path class="st3" d="M609.7,316.6c-20.5,0-37.2,16.6-37.2,37.2c0,20.5,16.6,37.1,37.1,37.2c0,0,0,0,0.1,0
	c20.6,0,37.2-16.6,37.2-37.2C646.9,333.3,630.2,316.6,609.7,316.6z M592.3,361.8c1.2,1.7,2.8,2.3,5.1,2.3c1.1,0,2.1-0.2,3.1-0.6
	c0.9-0.4,2.1-0.9,3.4-1.7l3.8,5.4c-3.1,2.6-6.6,3.8-10.7,3.8c-3.2,0-5.9-0.7-8.3-2.1c-2.4-1.4-4.2-3.5-5.4-5.9
	c-1.2-2.6-1.9-5.5-1.9-9.1c0-3.4,0.7-6.4,1.9-9.1c1.2-2.6,3.1-4.7,5.4-6.2c2.3-1.5,5.1-2.1,8.3-2.1c2.1,0,4.2,0.2,5.8,0.9
	c1.8,0.7,3.5,1.7,5,3l-3.8,5.1c-1-0.7-2-1.3-3.1-1.7c-0.9-0.4-2.1-0.6-3.2-0.6c-4.6,0-6.9,3.5-6.9,10.7
	C590.6,357.6,591.3,360.1,592.3,361.8L592.3,361.8L592.3,361.8z M629.4,370.1c-1.3,4.2-3.4,7.3-6.2,9.6c-2.8,2.3-6.6,3.6-11.3,3.9
	l-0.9-6.4c3.1-0.4,5.4-1.1,6.9-2.1c0.6-0.4,1.7-1.7,1.7-1.7l-11.2-35.9h9.4l6.4,26.8l6.9-26.8h9.1L629.4,370.1L629.4,370.1z"/>
<path class="st3" d="M363.1,463.7l-0.4,8.3c0,0.5,0.5,0.7,0.9,0.5l3.2-2.5l2.8,2.1c0.3,0.2,0.8,0,0.8-0.4l-0.3-8.5l4.1-0.3
	c2.1-0.2,4,1.6,4,3.7v66.6c0,2.1-1.7,3.8-3.9,3.7l-49.6-2.2c-1.9-0.1-3.5-1.7-3.6-3.6l-2.3-61c-0.1-2.1,1.4-3.8,3.5-3.9L363.1,463.7
	L363.1,463.7z M353.7,491.6c0,1.4,9.7,0.7,11.1-0.2c0-9.8-5.3-15-14.9-15s-15.1,5.3-15.1,13.2c0,13.7,18.5,14,18.5,21.5
	c0,2.1-1,3.4-3.2,3.4c-3,0-4.1-1.5-4-6.7c0-1.1-11.2-1.5-11.6,0c-0.8,12.4,6.9,16,15.7,16c8.6,0,15.4-4.6,15.4-12.9
	c0-14.7-18.8-14.3-18.8-21.6c0-3,2.2-3.4,3.5-3.4C351.4,485.9,353.9,486.1,353.7,491.6L353.7,491.6z"/>
<path class="st5" d="M212.1,535.3H200c-6.7,0-12.1,5.4-12.1,12.1s5.4,12.1,12.1,12.1 M212.1,535.3v24.4 M212.1,535.3h12.1
	c6.7,0,12.1,5.4,12.1,12.1s-5.5,12.1-12.1,12.1 M212.1,559.6H200 M212.1,559.6v24.4 M212.1,559.6h12.1 M200,559.6
	c-6.7,0-12.1,5.4-12.1,12.1s5.4,12.1,12.1,12.1 M212.1,583.9H200 M212.1,583.9v12.1c0,6.7-5.4,12.1-12.1,12.1s-12.1-5.4-12.1-12.1
	s5.4-12.1,12.1-12.1 M224.3,559.6c6.7,0,12.1,5.4,12.1,12.1s-5.5,12.1-12.1,12.1c-6.7,0-12.1-5.5-12.1-12.1S217.5,559.6,224.3,559.6
	z"/>
<path class="st3" d="M644.6,499.4c0-4.9-3.3-9.2-8-10.4l10.3-30.4h-51.1l10.3,30.6c-4.6,1.3-7.8,5.5-7.8,10.3c0,3.6,1.8,6.8,4.5,8.8
	c-1.1,1.6-2.3,3-3.7,4.3c-2.6,2.4-5.5,4.4-8.8,5.7c-2.9-2-4.1-5.4-3-8.4c11.7-3.6,9.2-21-3.1-21c-5.9,0-10.7,4.8-10.7,10.7
	c0,2.9,1.2,5.6,3.1,7.5c-0.2,0.3-0.3,0.7-0.5,1c-1.6,3.3-3.5,7-4.1,11.2c-1.4,8.4,0.9,15.2,6.4,19c3,2.1,6.5,3.2,10.2,3.2
	c6.3,0,12.7-3.1,18.9-6.3c4.5-2.1,9-4.5,13.5-5.5c1.7-0.4,3.4-0.7,5.2-0.9c3.7-0.5,7.5-1.1,11-3.1c4-2.2,6.8-6.2,7.5-10.7
	c0.6-3.5,0-6.9-1.6-9.9C644,503.4,644.6,501.4,644.6,499.4L644.6,499.4z M639.9,499.4c0,3.3-2.7,6-6,6c-5.7,0-8.3-7.3-3.7-10.8l0,0
	c0.2-0.2,0.4-0.3,0.7-0.4h0.1c0.1-0.1,0.2-0.1,0.2-0.2h0.1c0.1-0.1,0.2-0.1,0.3-0.2s0.2-0.1,0.3-0.2c0,0,0,0,0.1,0
	c0.1,0,0.2-0.1,0.3-0.1h0.1c0.1,0,0.2-0.1,0.3-0.1l0,0l0.3-0.1h0.1c0.1,0,0.2,0,0.3,0h0.1c0.1,0,0.2,0,0.4,0h0.3c0.1,0,0.2,0,0.2,0
	h0.1c0.2,0,0.4,0.1,0.6,0.1C637.9,494,639.9,496.5,639.9,499.4L639.9,499.4z M602.5,463.4h37.7l-8.7,25.5c-0.3,0.1-0.7,0.2-1.1,0.3
	l-9.1-18.6l-9.2,18.5c-0.3-0.1-0.7-0.2-1.2-0.2L602.5,463.4z M619.6,497.3c-0.4-2.2-1.6-4.2-3.2-5.8l5-10l5,10.2
	c-1.5,1.5-2.6,3.4-3,5.5L619.6,497.3L619.6,497.3z M607.6,493.5c0.1,0,0.2-0.1,0.3-0.1h0.1c0.1,0,0.2,0,0.2-0.1h0.1
	c0.1,0,0.2,0,0.2,0h0.9c0.1,0,0.2,0,0.2,0s0.1,0,0.1,0c0.1,0,0.2,0,0.2,0.1h0.1l0.3,0.1l0,0c0.1,0,0.2,0.1,0.3,0.1h0.1
	c0.1,0,0.2,0.1,0.2,0.1c0,0,0,0,0.1,0c0.1,0.1,0.2,0.1,0.2,0.1l0,0c0.1,0.1,0.2,0.1,0.3,0.2l0,0c0.1,0.1,0.2,0.1,0.2,0.2
	c0,0,0,0,0.1,0c0.1,0.1,0.2,0.1,0.2,0.2l0,0c0.2,0.2,0.6,0.5,0.8,0.7l0,0c1.1,1.2,1.7,2.6,1.7,4.2c-0.2,7.8-11.8,7.8-12.1,0
	C603,496.5,604.9,494.2,607.6,493.5L607.6,493.5z M584,493.3c3.3,0,6,2.7,6,6c0,3.3-2.7,6-6,6s-6-2.7-6-6
	C577.9,496.1,580.6,493.3,584,493.3L584,493.3z M639.8,514.1c-0.6,3.1-2.5,5.8-5.2,7.3c-2.6,1.5-5.9,2-9.2,2.5
	c-1.9,0.2-3.8,0.6-5.7,1c-5,1.2-9.8,3.6-14.5,5.9c-5.9,3-11.6,5.7-16.8,5.7c-2.6,0-5.3-0.8-7.4-2.4c-5.3-3.6-5-10.5-4.4-14.2
	c0.6-3.6,2.1-6.8,3.7-9.9c0.1-0.2,0.2-0.3,0.2-0.6c0.5,0.2,1.1,0.3,1.7,0.4c-0.9,5.1,1.7,10.3,6.7,13l0.9,0.5l1-0.3
	c4.2-1.5,8.1-3.9,11.6-7.2c1.9-1.7,3.6-3.8,5-5.9c0.6,0.1,1.1,0.1,1.7,0.1c4.9,0,9.2-3.3,10.4-8h4c1.2,4.7,5.5,8,10.4,8
	c2,0,3.9-0.6,5.4-1.5C639.9,510.3,640.2,512.2,639.8,514.1L639.8,514.1z"/>
<polygon class="st0" points="493.3,666.7 460,666.7 443.3,695.6 460,724.5 493.3,724.5 510,695.6 "/>
<polygon class="st0" points="106.1,599.9 73.4,599.9 57.2,628.2 73.4,656.4 106.1,656.4 122.3,628.2 "/>
<polygon class="st0" points="239.6,667.3 207,667.3 190.7,695.6 207,723.8 239.6,723.8 255.9,695.6 "/>
<polygon class="st0" points="625.5,599.9 593,599.9 576.7,628.2 593,656.4 625.5,656.4 641.9,628.2 "/>
<polygon class="st0" points="565.2,672.4 547.3,672.4 538.4,687.8 547.3,703.2 565.2,703.2 574.1,687.8 "/>
<polygon class="st0" points="147.8,678.1 130.1,678.1 121.2,693.6 130.1,709 147.8,709 156.8,693.6 "/>
<polygon class="st0" points="290,710.2 272.2,710.2 263.3,725.6 272.2,741.1 290,741.1 299,725.6 "/>
<polygon class="st0" points="428.9,710.2 411,710.2 402.2,725.6 411,741.1 428.9,741.1 437.8,725.6 "/>
<polygon class="st0" points="356.5,731.2 338.8,731.2 329.8,746.7 338.8,762.1 356.5,762.1 365.4,746.7 "/>
<polygon class="st0" points="627.4,176.7 594.1,176.7 577.4,205.6 594.1,234.5 627.4,234.5 644.1,205.6 "/>
<polygon class="st0" points="106.4,172.7 73,172.7 56.4,201.6 73,230.5 106.4,230.5 123.1,201.6 "/>
<polygon class="st0" points="636,687.8 602.7,687.8 586,716.7 602.7,745.6 636,745.6 652.7,716.7 "/>
<polygon class="st0" points="101,702.4 67.7,702.4 51,731.2 67.7,760.1 101,760.1 117.7,731.2 "/>
<polygon class="st0" points="199.6,744.8 181.8,744.8 172.9,760.1 181.8,775.6 199.6,775.6 208.5,760.1 "/>
<polygon class="st0" points="516.6,744.8 498.9,744.8 490,760.1 498.9,775.6 516.6,775.6 525.5,760.1 "/>
<polygon class="st0" points="264.8,760.1 246.9,760.1 238,775.6 246.9,791 264.8,791 273.7,775.6 "/>
<polygon class="st0" points="453.6,758.9 435.8,758.9 426.9,774.3 435.8,789.8 453.6,789.8 462.5,774.3 "/>
<polygon class="st0" points="309,768.2 300,768.2 295.3,776.2 300,784 309,784 313.6,776.2 "/>
<polygon class="st0" points="394.1,768.2 385,768.2 380.5,776.2 385,784 394.1,784 398.7,776.2 "/>
<polygon class="st0" points="357.1,784.2 335.9,784.2 325.3,802.5 335.9,820.8 357.1,820.8 367.7,802.5 "/>
<g id="Layer_2_00000067236690549518905640000011460764254135124355_">
	<g id="invisible_box">
		<rect x="432.2" y="521.3" class="st6" width="108.3" height="108.3"/>
	</g>
	<g id="Q3_icons">
		<g>
			<rect x="481" y="566.2" class="st7" width="5.4" height="10.9"/>
			<path class="st7" d="M436.8,555.2v33.2h27.5v5.6h22.1v-5.6H536v-33.2H436.8z M464.3,582.7h-5.4v-16.4h-5.6v16.4h-10.8v-21.9h21.9
				L464.3,582.7L464.3,582.7z M492,582.7H481v5.6h-11.1v-27.5H492L492,582.7L492,582.7z M530.6,582.7h-5.4v-16.4h-5.6v16.4H514
				v-16.4h-5.4v16.4h-11.1v-21.9h33.2L530.6,582.7L530.6,582.7z"/>
		</g>
	</g>
</g>
<path class="st7" d="M348.5,606.8c-21.1,0-38.2,17.1-38.2,38.2c0,21.1,17.1,38.2,38.2,38.2c21.1,0,38.2-17.1,38.2-38.2
	C386.7,623.9,369.6,606.8,348.5,606.8z M335.7,668.2l13.6-19.7c0.2-0.3,0-0.7-0.4-0.7h-17.8c-0.4,0-0.7-0.5-0.3-0.8l27.2-26.7
	c0.1-0.1,0.2-0.2,0.3-0.2c0.3,0,0.6,0.3,0.4,0.7l-9.7,18.7c-0.2,0.3,0.1,0.7,0.4,0.7h17c0.4,0,0.7,0.5,0.3,0.8l-30.3,27.8
	c-0.1,0.1-0.2,0.2-0.3,0.2C335.8,669,335.5,668.6,335.7,668.2z"/>
<polygon class="st8" points="1079.8,359.5 1015.4,359.5 983.1,415.3 1015.4,471.1 1079.8,471.1 1112,415.3 "/>
<polygon class="st9" points="1230.9,114.6 1134,114.6 1085.5,198.5 1134,282.4 1230.9,282.4 1279.4,198.5 "/>
<polygon class="st8" points="1350.9,227.9 1286.5,227.9 1254.3,283.7 1286.5,339.5 1350.9,339.5 1383.1,283.7 "/>
<polygon class="st8" points="1215.5,303.7 1151.1,303.7 1118.9,359.5 1151.1,415.3 1215.5,415.3 1247.8,359.5 "/>
<polygon class="st8" points="1079.8,226.6 1015.4,226.6 983.1,282.4 1015.4,338.2 1079.8,338.2 1112,282.4 "/>
<polygon class="st8" points="1214.6,436.6 1150.2,436.6 1118,492.4 1150.2,548.3 1214.6,548.3 1246.9,492.4 "/>
<polygon class="st8" points="1351.8,361.9 1287.4,361.9 1255.2,417.7 1287.4,473.6 1351.8,473.6 1384.1,417.7 "/>
<polygon class="st8" points="1079.8,58.7 1015.4,58.7 983.1,114.6 1015.4,170.3 1079.8,170.3 1112,114.6 "/>
<polygon class="st8" points="1355.5,58.7 1291.1,58.7 1258.8,114.5 1291.1,170.3 1355.5,170.3 1387.7,114.5 "/>
<polygon class="st8" points="958.8,294.3 894.4,294.3 862.1,350.1 894.4,405.9 958.8,405.9 991,350.1 "/>
<polygon class="st8" points="1472.8,294.3 1408.4,294.3 1376.2,350.1 1408.4,405.9 1472.8,405.9 1505.1,350.1 "/>
<path class="st3" d="M1286,112c0-0.3-0.2-0.7-0.5-0.8l-7.6-4.3c-0.2-0.1-0.2-0.1-0.4-0.1h-0.1c-0.2,0-0.3,0.1-0.4,0.1l-7.6,4.3
	c-0.2,0.2-0.5,0.5-0.5,0.8v11.8c0,0.2,0.1,0.3,0.2,0.4c0.2,0.1,0.3,0.1,0.5,0l4.5-2.6c0.2-0.2,0.5-0.5,0.5-0.8v-5.5
	c0-0.3,0.2-0.7,0.5-0.8l1.9-1.1c0.2-0.1,0.3-0.1,0.5-0.1c0.2,0,0.3,0.1,0.5,0.1l1.9,1.1c0.2,0.2,0.5,0.5,0.5,0.8v5.5
	c0,0.3,0.2,0.7,0.5,0.8l4.5,2.6c0.2,0.1,0.3,0.1,0.5,0c0.2-0.1,0.2-0.2,0.2-0.4L1286,112L1286,112z M1326.4,95.9
	c-0.2-0.1-0.3-0.1-0.5,0c-0.2,0.1-0.2,0.2-0.2,0.4v11.6c0,0.1-0.1,0.2-0.2,0.2c-0.1,0.1-0.2,0.1-0.3,0l-1.9-1.1
	c-0.2-0.2-0.7-0.2-0.9,0l-7.6,4.4c-0.2,0.2-0.5,0.5-0.5,0.8v8.7c0,0.3,0.2,0.7,0.5,0.8l7.6,4.4c0.2,0.2,0.7,0.2,0.9,0l7.6-4.4
	c0.2-0.2,0.5-0.5,0.5-0.8V99.2c0-0.3-0.2-0.7-0.5-0.8L1326.4,95.9L1326.4,95.9z M1325.6,118.1c0,0.1-0.1,0.2-0.1,0.2l-2.6,1.5
	c-0.1,0.1-0.2,0.1-0.2,0l-2.6-1.5c-0.1-0.1-0.1-0.1-0.1-0.2v-3c0-0.1,0.1-0.2,0.1-0.2l2.6-1.5c0.1-0.1,0.2-0.1,0.2,0l2.6,1.5
	c0.1,0.1,0.1,0.1,0.1,0.2V118.1z M1353.4,115c0.2-0.2,0.5-0.5,0.5-0.8v-2.1c0-0.3-0.2-0.7-0.5-0.8l-7.5-4.4c-0.2-0.2-0.7-0.2-0.9,0
	l-7.6,4.4c-0.2,0.2-0.5,0.5-0.5,0.8v8.7c0,0.3,0.2,0.7,0.5,0.8l7.5,4.3c0.2,0.2,0.7,0.2,0.9,0l4.6-2.5c0.2-0.1,0.2-0.2,0.2-0.4
	c0-0.2-0.1-0.3-0.2-0.4l-7.6-4.4c-0.2-0.1-0.2-0.2-0.2-0.4V115c0-0.2,0.1-0.3,0.2-0.4l2.4-1.4c0.2-0.1,0.3-0.1,0.5,0l2.4,1.4
	c0.2,0.1,0.2,0.2,0.2,0.4v2.1c0,0.2,0.1,0.3,0.2,0.4c0.2,0.1,0.3,0.1,0.5,0L1353.4,115L1353.4,115z M1299.7,106.9
	c0.2-0.2,0.7-0.2,0.9,0l7.6,4.4c0.2,0.2,0.5,0.5,0.5,0.8v8.7c0,0.3-0.2,0.7-0.5,0.8l-7.6,4.4c-0.2,0.2-0.7,0.2-0.9,0l-7.6-4.4
	c-0.2-0.2-0.5-0.5-0.5-0.8v-8.7c0-0.3,0.2-0.7,0.5-0.8L1299.7,106.9L1299.7,106.9z M1368.1,126.1c-0.2,0-0.5-0.1-0.7-0.2l-2.4-1.4
	c-0.3-0.2-0.2-0.2-0.1-0.3c0.5-0.2,0.6-0.2,1.1-0.5c0.1,0,0.2,0,0.2,0l1.8,1.1c0.1,0,0.2,0,0.2,0l7.1-4.1c0.1,0,0.1-0.1,0.1-0.2
	v-8.2c0-0.1-0.1-0.2-0.1-0.2l-7.1-4.1c-0.1,0-0.2,0-0.2,0l-7.1,4.1c-0.1,0-0.1,0.1-0.1,0.2v8.2c0,0.1,0.1,0.2,0.1,0.2l2,1.1
	c1.1,0.6,1.7-0.1,1.7-0.7V113c0-0.1,0.1-0.2,0.2-0.2h0.9c0.1,0,0.2,0.1,0.2,0.2v8.2c0,1.4-0.7,2.2-2.1,2.2c-0.4,0-0.7,0-1.6-0.4
	l-1.9-1.1c-0.5-0.2-0.7-0.7-0.7-1.3v-8.2c0-0.6,0.3-1.1,0.7-1.3l7.1-4.2c0.5-0.2,1.1-0.2,1.5,0l7.1,4.2c0.5,0.2,0.7,0.7,0.7,1.3v8.2
	c0,0.6-0.3,1.1-0.7,1.3l-7.1,4.1C1368.7,126.1,1368.4,126.1,1368.1,126.1L1368.1,126.1z M1370.3,120.4c-3.1,0-3.8-1.5-3.8-2.6
	c0-0.1,0.1-0.2,0.2-0.2h0.9c0.1,0,0.2,0.1,0.2,0.2c0.2,1,0.6,1.4,2.4,1.4c1.5,0,2.1-0.3,2.1-1.1c0-0.5-0.2-0.8-2.5-1.1
	c-2-0.2-3.2-0.7-3.2-2.2c0-1.5,1.2-2.3,3.3-2.3c2.3,0,3.4,0.8,3.6,2.5c0,0.1,0,0.1-0.1,0.2c-0.1,0.1-0.1,0.1-0.2,0.1h-0.9
	c-0.1,0-0.2-0.1-0.2-0.2c-0.2-1-0.7-1.3-2.2-1.3c-1.6,0-1.8,0.6-1.8,1c0,0.5,0.2,0.7,2.4,1c2.2,0.3,3.3,0.7,3.3,2.2
	C1374,119.5,1372.6,120.4,1370.3,120.4L1370.3,120.4z M1345.4,114.6c0.1,0,0.1,0,0.2,0l1.5,0.8c0.1,0,0.1,0.1,0.1,0.2v1.7
	c0,0.1,0,0.1-0.1,0.2l-1.5,0.8c-0.1,0-0.1,0-0.2,0l-1.5-0.8c-0.1,0-0.1-0.1-0.1-0.2v-1.7c0-0.1,0-0.1,0.1-0.2L1345.4,114.6z"/>
<g>
	<path class="st10" d="M995.7,125.1v-11.8h14.6v-0.7h-14.6V102h15.6v-0.7H995v24.5h16.4v-0.7L995.7,125.1L995.7,125.1L995.7,125.1z
		 M1024.6,108.1l-6,8l-6-8h-0.9l6.4,8.5l-7,9.1h0.8l6.6-8.6l6.6,8.6h0.8l-6.9-9.1l6.4-8.5H1024.6L1024.6,108.1z M1028,131.8v-10.9
		h0.1c0.4,1.6,1.2,2.9,2.4,3.8s2.8,1.5,4.7,1.5c1.2,0,2.3-0.2,3.2-0.7c0.9-0.5,1.7-1.1,2.4-2c0.7-0.8,1.1-1.8,1.5-2.9
		c0.3-1.1,0.5-2.3,0.5-3.5c0-1.3-0.2-2.5-0.5-3.7c-0.3-1.1-0.8-2.1-1.5-2.9c-0.7-0.8-1.5-1.5-2.4-1.9c-0.9-0.5-2-0.7-3.1-0.7
		c-0.9,0-1.7,0.2-2.4,0.4c-0.7,0.2-1.5,0.7-2,1.1c-0.6,0.5-1.1,1.1-1.6,1.7c-0.4,0.7-0.7,1.4-1,2.1h-0.1v-4.9h-0.7v23.7h0.5V131.8
		L1028,131.8z M1035.2,125.5c-2.1,0-3.8-0.7-5.1-2.2c-1.3-1.5-2-3.6-2-6.4c0-1.1,0.2-2.2,0.5-3.3s0.8-2,1.4-2.7
		c0.6-0.8,1.4-1.4,2.2-1.9c0.9-0.5,1.9-0.7,3-0.7s2.1,0.2,3,0.7c0.8,0.5,1.6,1.1,2.1,1.9c0.6,0.8,1,1.7,1.3,2.7
		c0.2,1,0.4,2.1,0.4,3.3c0,1.1-0.2,2-0.4,3.1c-0.2,1.1-0.7,2-1.2,2.8c-0.6,0.8-1.2,1.5-2.1,2
		C1037.4,125.2,1036.4,125.5,1035.2,125.5L1035.2,125.5L1035.2,125.5z M1046.5,125.7v-10c0-1,0.2-1.9,0.4-2.8
		c0.2-0.9,0.7-1.7,1.3-2.4c0.6-0.7,1.3-1.2,2.2-1.6c0.9-0.4,2-0.6,3.1-0.5v-0.7c-1.1,0-2,0.1-2.8,0.3s-1.5,0.6-2,1.1
		c-0.6,0.4-1.1,1-1.4,1.6c-0.3,0.6-0.6,1.2-0.7,1.9h-0.1v-4.3h-0.7v17.6h0.7V125.7z M1054.3,117.1h14.7c0.1-1.2-0.1-2.4-0.3-3.5
		c-0.2-1.1-0.7-2.1-1.4-3s-1.5-1.6-2.4-2.1c-1-0.5-2.2-0.8-3.5-0.8c-1,0-2,0.2-2.9,0.7s-1.8,1-2.4,1.8c-0.7,0.8-1.3,1.7-1.7,2.9
		c-0.4,1.1-0.7,2.4-0.7,3.9c0,1.3,0.2,2.5,0.4,3.7c0.3,1.1,0.7,2.1,1.4,2.9c0.7,0.8,1.4,1.5,2.4,2c1,0.5,2.1,0.7,3.5,0.7
		c2,0,3.7-0.6,5.1-1.7c1.4-1.1,2.2-2.7,2.4-4.8h-0.7c-0.3,2-1.1,3.4-2.3,4.4s-2.8,1.5-4.6,1.5c-1.2,0-2.3-0.2-3.2-0.7
		c-0.9-0.4-1.6-1.1-2.1-1.8c-0.6-0.7-1-1.6-1.2-2.7C1054.5,119.4,1054.3,118.2,1054.3,117.1L1054.3,117.1L1054.3,117.1z
		 M1068.3,116.4h-14c0.1-1.2,0.3-2.4,0.7-3.3c0.4-1,0.9-1.8,1.6-2.5c0.7-0.7,1.4-1.2,2.2-1.6c0.8-0.3,1.7-0.6,2.7-0.6
		c1.1,0,2.1,0.2,3,0.7s1.6,1,2.2,1.7c0.6,0.7,1.1,1.6,1.3,2.5C1068.2,114.3,1068.3,115.3,1068.3,116.4L1068.3,116.4L1068.3,116.4z
		 M1083.3,113.3h0.7c0-2-0.6-3.4-1.7-4.2c-1.1-0.9-2.7-1.3-4.7-1.3c-1.1,0-2,0.2-2.8,0.4c-0.7,0.2-1.4,0.7-1.9,1.1s-0.8,0.9-1.1,1.5
		c-0.2,0.5-0.3,1.1-0.3,1.5c0,1,0.2,1.7,0.5,2.3c0.3,0.6,0.9,1,1.6,1.3c0.5,0.2,1.1,0.4,1.7,0.7c0.7,0.2,1.4,0.4,2.2,0.6
		c0.7,0.2,1.5,0.3,2.2,0.6c0.7,0.2,1.4,0.4,2,0.7c0.6,0.3,1,0.7,1.4,1.1c0.3,0.5,0.6,1.1,0.6,1.9c0,0.7-0.2,1.4-0.6,2
		c-0.3,0.5-0.8,1-1.4,1.3c-0.6,0.3-1.1,0.6-1.8,0.7c-0.7,0.2-1.3,0.2-2,0.2c-2,0-3.7-0.5-4.8-1.4c-1.1-0.9-1.6-2.4-1.6-4.4h-0.7
		c0,2.2,0.6,3.8,1.8,4.9c1.2,1.1,2.9,1.6,5.3,1.6c0.7,0,1.6-0.1,2.3-0.2s1.5-0.5,2-0.8c0.6-0.3,1.1-0.9,1.5-1.5
		c0.4-0.6,0.6-1.4,0.6-2.3c0-0.8-0.2-1.6-0.5-2c-0.3-0.5-0.7-1-1.3-1.3c-0.6-0.3-1.1-0.6-1.8-0.8c-0.7-0.2-1.4-0.4-2-0.6
		c-1-0.2-1.8-0.5-2.5-0.7c-0.7-0.2-1.4-0.4-2-0.7c-0.6-0.2-1.1-0.6-1.4-1.1c-0.3-0.5-0.6-1.1-0.6-2c0-0.2,0.1-0.4,0.2-0.8
		c0.1-0.4,0.3-0.8,0.7-1.2c0.3-0.4,0.9-0.8,1.6-1.1c0.7-0.3,1.7-0.5,2.9-0.5c0.8,0,1.6,0.1,2.3,0.2c0.7,0.2,1.3,0.5,1.8,0.9
		c0.5,0.4,0.9,0.9,1.1,1.6C1082.9,111.9,1083.3,112.4,1083.3,113.3L1083.3,113.3L1083.3,113.3z M1099.1,113.3h0.7
		c0-2-0.6-3.4-1.7-4.2c-1.1-0.9-2.7-1.3-4.7-1.3c-1.1,0-2,0.2-2.8,0.4c-0.7,0.2-1.4,0.7-1.9,1.1s-0.8,0.9-1.1,1.5
		c-0.2,0.5-0.3,1.1-0.3,1.5c0,1,0.2,1.7,0.5,2.3c0.3,0.6,0.9,1,1.6,1.3c0.5,0.2,1.1,0.4,1.7,0.7c0.7,0.2,1.4,0.4,2.2,0.6
		c0.7,0.2,1.5,0.3,2.2,0.6c0.7,0.2,1.4,0.4,2,0.7c0.6,0.3,1,0.7,1.4,1.1c0.3,0.5,0.6,1.1,0.6,1.9c0,0.7-0.2,1.4-0.6,2
		c-0.3,0.5-0.8,1-1.4,1.3c-0.6,0.3-1.1,0.6-1.8,0.7c-0.7,0.2-1.3,0.2-2,0.2c-2,0-3.7-0.5-4.8-1.4c-1.1-0.9-1.6-2.4-1.6-4.4h-0.7
		c0,2.2,0.6,3.8,1.8,4.9c1.2,1.1,2.9,1.6,5.3,1.6c0.7,0,1.6-0.1,2.3-0.2c0.7-0.2,1.5-0.5,2-0.8c0.6-0.4,1.1-0.9,1.5-1.5
		c0.4-0.6,0.6-1.4,0.6-2.3c0-0.8-0.2-1.6-0.5-2c-0.3-0.5-0.7-1-1.3-1.3c-0.6-0.3-1.1-0.6-1.8-0.8c-0.7-0.2-1.4-0.4-2-0.6
		c-1-0.2-1.8-0.5-2.5-0.7c-0.7-0.2-1.4-0.4-2-0.7c-0.6-0.2-1.1-0.6-1.4-1.1c-0.3-0.5-0.6-1.1-0.6-2c0-0.2,0.1-0.4,0.2-0.8
		s0.3-0.8,0.7-1.2c0.3-0.4,0.9-0.8,1.6-1.1c0.7-0.3,1.7-0.5,2.9-0.5c0.8,0,1.6,0.1,2.3,0.2c0.7,0.2,1.3,0.5,1.8,0.9
		c0.5,0.4,0.9,0.9,1.1,1.6C1098.9,111.7,1099.1,112.4,1099.1,113.3L1099.1,113.3L1099.1,113.3z"/>
</g>
<polygon class="st8" points="1350.9,509.8 1286.5,509.8 1254.3,565.6 1286.5,621.4 1350.9,621.4 1383.1,565.6 "/>
<polygon class="st8" points="1079.8,509.8 1015.4,509.8 983.1,565.6 1015.4,621.4 1079.8,621.4 1112,565.6 "/>
<polygon class="st8" points="958.8,436.6 894.4,436.6 862.1,492.4 894.4,548.3 958.8,548.3 991,492.4 "/>
<polygon class="st8" points="1473.9,438.2 1409.4,438.2 1377.1,494.1 1409.4,549.9 1473.9,549.9 1506,494.1 "/>
<polygon class="st8" points="1214.6,582.2 1150.2,582.2 1118,638 1150.2,693.8 1214.6,693.8 1246.9,638 "/>
<polygon class="st8" points="1325.6,659.4 1292.6,659.4 1276.1,688 1292.6,716.6 1325.6,716.6 1342,688 "/>
<polygon class="st8" points="942.7,593.5 910.5,593.5 894.4,621.4 910.5,649.3 942.7,649.3 958.8,621.4 "/>
<polygon class="st8" points="1074.7,660.1 1042.5,660.1 1026.4,688 1042.5,715.9 1074.7,715.9 1090.8,688 "/>
<polygon class="st8" points="1456.2,593.5 1424.1,593.5 1407.9,621.4 1424.1,649.3 1456.2,649.3 1472.4,621.4 "/>
<polygon class="st8" points="1396.6,665.1 1378.9,665.1 1370.1,680.3 1378.9,695.6 1396.6,695.6 1405.4,680.3 "/>
<polygon class="st8" points="984,670.8 966.5,670.8 957.6,686 966.5,701.3 984,701.3 992.8,686 "/>
<polygon class="st8" points="1124.6,702.5 1106.9,702.5 1098.1,717.7 1106.9,733 1124.6,733 1133.4,717.7 "/>
<polygon class="st8" points="1261.8,702.5 1244.2,702.5 1235.4,717.7 1244.2,733 1261.8,733 1270.6,717.7 "/>
<polygon class="st8" points="1458.1,175 1425.1,175 1408.7,203.6 1425.1,232.2 1458.1,232.2 1474.6,203.6 "/>
<polygon class="st8" points="943,171.1 910.1,171.1 893.6,199.7 910.1,228.3 943,228.3 959.5,199.7 "/>
<polygon class="st8" points="1466.6,680.3 1433.6,680.3 1417.1,708.9 1433.6,737.5 1466.6,737.5 1483.1,708.9 "/>
<polygon class="st8" points="937.7,694.8 904.8,694.8 888.3,723.3 904.8,751.8 937.7,751.8 954.2,723.3 "/>
<polygon class="st8" points="1035.2,738.6 1017.6,738.6 1008.7,753.8 1017.6,769 1035.2,769 1043.9,753.8 "/>
<polygon class="st8" points="1348.6,736.7 1331,736.7 1322.2,751.8 1331,767.1 1348.6,767.1 1357.4,751.8 "/>
<polygon class="st8" points="1105.1,753 1087.4,753 1078.6,768.2 1087.4,783.5 1105.1,783.5 1113.9,768.2 "/>
<polygon class="st8" points="1286.3,750.6 1268.7,750.6 1259.8,765.9 1268.7,781.1 1286.3,781.1 1295.1,765.9 "/>
<polygon class="st8" points="1152.4,766.5 1143.4,766.5 1138.8,774.4 1143.4,782.1 1152.4,782.1 1156.9,774.4 "/>
<polygon class="st8" points="1227.4,759.8 1218.5,759.8 1214,767.7 1218.5,775.4 1227.4,775.4 1232,767.7 "/>
<polygon class="st8" points="1201.2,784.4 1180.2,784.4 1169.8,802.5 1180.2,820.6 1201.2,820.6 1211.6,802.5 "/>
<g id="svgGroup_00000147216921619525643590000002799042693172490171_">
	<path vector-effect="non-scaling-stroke" class="st11" d="M1172.9,212.9v-29c0-0.9,0.3-1.3,1.1-1.3c0.7,0,1,0.3,1.1,1.1
		c0,0.1,0,0.2,0,0.2v18.9l13.6-9.4c0.2-0.1,0.3-0.2,0.6-0.2c0.1,0,0.2,0,0.3,0.1c0.2,0.1,0.4,0.2,0.5,0.4c0.1,0.2,0.2,0.3,0.2,0.4
		v0.1c0,0.2-0.1,0.3-0.2,0.4c-0.1,0.2-0.2,0.3-0.4,0.4l-7.3,5.1c4.3,2.8,7.3,7.2,8.3,12.2c0,0.2,0.1,0.4,0.1,0.6c0,0.2,0,0.4,0,0.6
		s-0.1,0.2-0.2,0.3c-0.2,0.2-0.3,0.3-0.6,0.3c-0.1,0-0.1,0-0.2,0c-0.2,0-0.3,0-0.4-0.1c-0.3-0.1-0.6-0.3-0.7-0.7
		c0-0.1,0-0.2-0.1-0.2c-0.2-1-0.5-2-0.8-3c-0.6-1.6-1.1-2.9-2-4c-1.2-1.7-3-3.4-5.5-4.9l-5.4,3.8v7.8c0,0.8-0.3,1.2-0.9,1.3
		c-0.1,0-0.2,0-0.2,0c-0.2,0-0.3,0-0.5-0.1C1173.2,213.8,1173,213.5,1172.9,212.9C1172.9,213.1,1172.9,213,1172.9,212.9z
		 M1220.8,212.9v-18.3c0-0.9,0.3-1.3,1.1-1.3c0.7,0,1,0.3,1.1,1.1c0,0.1,0,0.2,0,0.2v2.9c1-1.4,2.3-2.4,3.8-3.1
		c1.4-0.7,2.9-1.1,4.3-1.1c0.2,0,0.3,0,0.5,0c0.7,0,1.6,0.1,2.3,0.2c1.6,0.3,2.8,0.9,3.7,1.9c0.7,0.7,1.3,1.6,1.6,2.7
		c0.2,0.7,0.3,1.4,0.4,2.2c0,0.4,0.1,0.7,0.1,1.1V213c0,0.8-0.3,1.2-0.9,1.3c-0.1,0-0.2,0-0.2,0c-0.2,0-0.3,0-0.5-0.1
		c-0.3-0.2-0.5-0.5-0.6-1c0-0.1,0-0.2,0-0.2v-11.5c0-0.6,0-1.1-0.1-1.7c-0.2-1.3-0.7-2.3-1.3-2.9c-0.5-0.5-1.1-0.8-1.7-1.1
		c-0.5-0.2-1-0.2-1.6-0.3c-0.4-0.1-0.8-0.1-1.2-0.1c-0.8,0-1.6,0.1-2.4,0.2c-0.7,0.2-1.5,0.4-2.1,0.7c-1.3,0.7-2.3,1.6-3,2.9
		c-0.6,1-0.9,2.1-1,3.2c0,0.3-0.1,0.7-0.1,1v9.6c0,0.8-0.3,1.2-0.9,1.3c-0.1,0-0.2,0-0.2,0c-0.2,0-0.3,0-0.5-0.1
		c-0.3-0.2-0.5-0.5-0.6-1C1220.8,213.1,1220.8,213,1220.8,212.9z M1264.9,197.8l0.1-13.9c0-0.8,0.3-1.2,0.9-1.3c0.1,0,0.2,0,0.2,0
		c0.2,0,0.3,0,0.5,0.1c0.3,0.2,0.5,0.5,0.6,1c0,0.1,0,0.2,0,0.2v29c0,0.9-0.3,1.3-1.1,1.3c-0.7,0-1-0.3-1.1-1.1c0-0.1,0-0.2,0-0.2
		v-3.3c-1,1.6-2.3,2.7-3.8,3.5c-1.1,0.6-2.4,0.9-3.6,1.1c-0.6,0.1-1.2,0.1-1.8,0.1c-1.1,0-2.2-0.1-3.3-0.3c-2-0.4-3.5-1.2-4.8-2.4
		c-1.4-1.3-2.3-3-2.6-4.9c-0.2-0.9-0.2-1.8-0.2-2.7c0-1.1,0.2-2.3,0.4-3.3c0.2-0.7,0.5-1.4,0.8-2c0.8-1.6,2.1-2.9,3.8-3.8
		c1-0.6,2-0.9,3.1-1.1c0.9-0.2,1.8-0.2,2.8-0.2h0.1c0.8,0,1.6,0.1,2.4,0.2c1.1,0.2,2,0.6,2.9,1c1.2,0.7,2.4,1.6,3.3,2.6
		C1264.6,197.4,1264.7,197.7,1264.9,197.8z M1212.3,204.7h-16.2c0,2.4,0.7,4.2,2.3,5.6c0.8,0.7,1.9,1.3,2.9,1.6
		c1,0.3,2.2,0.4,3.4,0.4c0.7,0,1.3,0,1.9-0.1c0.9-0.1,1.7-0.2,2.4-0.5c1.1-0.3,2-0.9,2.9-1.6c0.2-0.1,0.2-0.2,0.4-0.3
		c0.1-0.1,0.2-0.2,0.2-0.2c0.2-0.2,0.5-0.3,0.7-0.3c0,0,0,0,0.1,0s0.1,0,0.2,0c0.1,0,0.2,0.1,0.3,0.2c0.1,0.1,0.2,0.2,0.2,0.2
		c0.1,0.1,0.2,0.2,0.2,0.2c0,0.1,0.1,0.2,0.1,0.3c0,0.2-0.1,0.4-0.2,0.6l-0.1,0.1c-1.1,1.1-2.4,2-3.9,2.6c-1,0.3-2,0.6-3,0.7
		c-0.7,0.1-1.6,0.2-2.4,0.2c-1.1,0-2.1-0.1-3.2-0.3c-2-0.4-3.7-1.2-4.9-2.4c-1.1-1.1-2-2.5-2.4-4.1c-0.3-1.1-0.5-2.4-0.5-3.8
		c0-0.9,0.1-1.9,0.3-2.8c0.2-1,0.6-1.9,1.1-2.7c0.9-1.6,2.1-2.8,3.8-3.6c1-0.5,2.1-0.9,3.3-1.1c0.8-0.2,1.7-0.2,2.5-0.2
		c1,0,1.9,0.1,2.9,0.2c0.9,0.2,1.8,0.4,2.7,0.7c1.6,0.7,2.9,1.6,3.8,2.8c0.9,1.2,1.4,2.6,1.4,4.2c0,0.3,0,0.7-0.1,1
		c-0.1,0.4-0.2,0.7-0.4,1.1c-0.1,0.2-0.2,0.3-0.3,0.4C1214,204.3,1213.3,204.7,1212.3,204.7z M1140.5,203.4v-3
		c0-0.5-0.1-1.1-0.2-1.6c-0.2-0.9-0.7-1.7-1.5-2.3c-0.8-0.7-1.9-1.1-3.3-1.2c-0.6-0.1-1.1-0.1-1.6-0.1c-1.9,0-3.8,0.4-5.5,1.1
		c-0.5,0.2-1.1,0.5-1.5,0.8c-0.3,0.2-0.7,0.3-0.8,0.3c-0.1,0-0.2,0-0.2,0c-0.1,0-0.2-0.1-0.2-0.1c-0.1,0-0.2-0.1-0.2-0.1
		c-0.2-0.2-0.3-0.3-0.3-0.6c0-0.1,0-0.2,0-0.2s0-0.2,0-0.3c0-0.2,0.2-0.3,0.2-0.4c0.6-0.5,1.2-0.9,2-1.1c0.6-0.2,1.2-0.5,1.8-0.7
		c1.5-0.5,3-0.7,4.7-0.7c0.8,0,1.6,0.1,2.4,0.2c1.6,0.2,2.9,0.8,4,1.7c1.1,1,2,2.3,2.1,3.8c0.1,0.5,0.2,1.1,0.2,1.6v12.3
		c0,0.9-0.3,1.3-1.1,1.3c-0.2,0-0.3,0-0.5-0.1c-0.3-0.2-0.5-0.5-0.6-1c0-0.1,0-0.2,0-0.2V211c-0.7,0.8-1.6,1.5-2.5,2
		c-0.2,0.2-0.5,0.2-0.7,0.3c-0.9,0.3-1.9,0.6-2.9,0.7c-0.6,0.1-1.1,0.1-1.7,0.1c-0.8,0-1.6-0.1-2.4-0.2c-1.6-0.2-2.9-0.8-3.9-1.6
		c-1.5-1.1-2.3-2.9-2.3-4.9c0-0.7,0.1-1.6,0.3-2.3c0.4-1.1,1.1-2,2-2.7c0.8-0.6,1.6-1.1,2.6-1.3c0.7-0.2,1.6-0.4,2.4-0.5
		c0.5-0.1,1-0.1,1.5-0.1c0.9,0,1.7,0.1,2.5,0.2c0.7,0.1,1.4,0.2,2,0.5c0.4,0.2,0.9,0.3,1.3,0.6
		C1139.4,202.4,1140,202.9,1140.5,203.4z M1158.5,214.2c-2.1,0-4-0.4-5.6-1.3c-1.6-0.9-2.9-2.1-3.8-3.7c-0.9-1.6-1.3-3.4-1.3-5.5
		c0-1,0.1-2,0.3-3c0.2-0.9,0.6-1.7,1-2.4c0.9-1.6,2.1-2.8,3.8-3.7c1.6-0.9,3.5-1.3,5.6-1.3c1.1,0,2.2,0.1,3.3,0.3
		c2.4,0.5,4.2,1.5,5.6,3c0.2,0.2,0.3,0.4,0.3,0.7l0,0c0,0.3-0.1,0.6-0.3,0.7c0,0,0,0-0.1,0c-0.2,0.2-0.3,0.2-0.6,0.2l0,0
		c-0.2,0-0.4-0.1-0.6-0.2c-0.1-0.1-0.2-0.2-0.3-0.2c0,0,0,0-0.1-0.1c-0.8-0.9-1.8-1.6-2.9-2c-0.6-0.2-1.1-0.3-1.6-0.4
		c-0.8-0.2-1.6-0.2-2.6-0.2c-0.8,0-1.7,0.1-2.5,0.2c-1,0.2-1.9,0.5-2.6,1c-0.5,0.2-0.9,0.6-1.2,1c-0.9,0.9-1.5,2-1.8,3.1
		c-0.2,0.7-0.3,1.6-0.4,2.4c0,0.2,0,0.5,0,0.7c0,2.1,0.4,3.8,1.3,5.2c0.2,0.4,0.6,0.7,0.9,1.1c0.9,0.9,2,1.5,3.2,1.8
		c0.7,0.2,1.6,0.3,2.5,0.4c0.2,0,0.4,0,0.7,0c0.9,0,1.8-0.1,2.7-0.2c1.9-0.3,3.3-1.1,4.4-2.3c0.3-0.3,0.7-0.5,1-0.5
		c0.2,0,0.4,0.1,0.6,0.2l0,0c0.1,0.1,0.2,0.2,0.2,0.2c0.1,0.2,0.2,0.3,0.2,0.5c0,0.2-0.1,0.5-0.3,0.7c-0.8,0.7-1.7,1.5-2.8,2
		c-0.4,0.2-0.8,0.4-1.2,0.5c-1,0.3-2,0.6-3,0.7C1159.7,214.2,1159.1,214.2,1158.5,214.2z M1096,209.3v-19.8c0-0.5,0.1-0.9,0.2-1.4
		c0.2-0.7,0.6-1.5,1.1-2c0.5-0.5,1.1-0.8,1.8-1c0.5-0.2,1.1-0.2,1.7-0.2h9.8c0.8,0,1.6,0.1,2.4,0.2c1.6,0.3,2.8,0.9,3.8,1.8
		c1,0.9,1.6,2.1,1.9,3.4c0.2,0.7,0.2,1.5,0.2,2.3c0,0.7-0.1,1.4-0.3,2c-0.2,0.6-0.4,1.1-0.7,1.6c-0.5,0.7-1.1,1.3-1.8,1.7
		c-0.4,0.2-0.8,0.5-1.3,0.7v0.1c0.9,0.3,1.6,0.7,2.4,1.4c0.4,0.3,0.7,0.7,1.1,1.2c0.7,1.1,1.1,2.3,1.2,3.6c0,0.2,0,0.4,0,0.6
		c0,2.6-0.7,4.6-2.2,6c-1,1-2.3,1.6-3.6,2c-0.8,0.2-1.6,0.2-2.4,0.2h-10.4c-1.5,0-2.7-0.4-3.5-1.2c-0.6-0.6-1-1.2-1.1-2
		C1096,210.2,1096,209.7,1096,209.3z M1100.5,211.9h10.6c1.5,0,2.6-0.2,3.6-0.8c0.3-0.2,0.7-0.5,1-0.8c0.9-0.9,1.4-2.2,1.5-3.8
		c0-0.3,0-0.6,0-0.9c0-0.7-0.1-1.2-0.2-1.9c-0.2-0.9-0.7-1.7-1.4-2.4c-0.7-0.7-1.6-1.1-2.6-1.4c-0.7-0.2-1.2-0.2-1.9-0.2h-12.8v9.6
		c0,0.3,0,0.6,0.2,0.9c0.1,0.3,0.3,0.7,0.6,0.9C1099.3,211.7,1099.8,211.9,1100.5,211.9z M1255.7,212.3c0.9,0,1.9-0.1,2.8-0.2
		c1.6-0.3,2.9-1,4.1-2c1.6-1.6,2.4-3.6,2.4-6.2c0-0.8-0.1-1.6-0.3-2.4c-0.2-0.7-0.6-1.5-1-2.1c-0.9-1.3-2-2.3-3.4-2.9
		c-1.4-0.7-2.9-1-4.5-1c-2.4,0-4.3,0.6-5.9,1.7c-0.2,0.2-0.5,0.4-0.7,0.7c-1.1,1.2-2,2.8-2.2,4.4c-0.1,0.7-0.2,1.2-0.2,1.9
		c0,0.8,0.1,1.6,0.2,2.4c0.2,0.9,0.5,1.7,0.8,2.4c0.3,0.6,0.7,1.1,1.2,1.6c1.3,1.1,3,1.8,5.3,2
		C1254.9,212.3,1255.3,212.3,1255.7,212.3z M1098.1,197.9h12.9c0.6,0,1.2-0.1,1.8-0.2c0.8-0.2,1.6-0.7,2.3-1.2
		c0.9-0.8,1.5-2,1.6-3.2c0-0.2,0-0.3,0-0.5c0-0.6-0.1-1.1-0.2-1.6c-0.2-0.7-0.3-1.2-0.7-1.7c-0.2-0.3-0.5-0.7-0.7-0.9
		c-0.6-0.5-1.1-0.9-1.9-1.1c-0.7-0.2-1.6-0.4-2.7-0.4h-10.1c-0.3,0-0.6,0.1-0.8,0.2c-0.3,0.1-0.6,0.3-0.8,0.6
		c-0.4,0.4-0.6,0.9-0.7,1.5c0,0.1,0,0.2,0,0.3V197.9L1098.1,197.9z M1196.2,202.8h15.5c0.6,0,1-0.1,1.2-0.3c0,0,0,0,0.1,0
		c0.1-0.1,0.2-0.2,0.2-0.4c0.1-0.2,0.2-0.5,0.2-0.9c0-1.1-0.3-2.1-1.1-3c-0.5-0.6-1.1-1.1-1.7-1.5c-0.4-0.2-0.9-0.5-1.3-0.7
		c-0.9-0.3-1.8-0.6-2.8-0.7c-0.6-0.1-1.1-0.1-1.6-0.1c-0.8,0-1.6,0.1-2.4,0.2c-0.9,0.2-1.7,0.4-2.4,0.7c-0.6,0.2-1.1,0.6-1.5,1
		c-1.1,0.9-1.8,2.2-2,3.6C1196.3,201.5,1196.2,202.1,1196.2,202.8z M1132.7,212.3c0.7,0,1.6-0.1,2.3-0.2c0.8-0.2,1.6-0.3,2.2-0.6
		c0.4-0.2,0.8-0.4,1.2-0.7c0.4-0.2,0.8-0.6,1.1-1c0.7-0.7,1-1.6,1-2.6c0-1.1-0.5-2.1-1.3-2.8c-0.2-0.2-0.5-0.4-0.7-0.5
		c-1-0.6-2.2-0.9-3.8-1.1c-0.7-0.1-1.3-0.1-2-0.1c-2.1,0-3.8,0.4-4.9,1.2c-1,0.7-1.6,1.8-1.6,2.9c0,0.2,0,0.4,0,0.7
		c0,2.7,1.6,4.2,4.7,4.7C1131.4,212.3,1132,212.3,1132.7,212.3z"/>
</g>
<g id="SVGRepo_iconCarrier">
	<g>
		<path class="st4" d="M1092,279.7c-0.1,0-0.2,0.2-0.2,0.3c0,0.8,0,2.9,0,4.2l0.1,0.1c0.3,0,1,0,1.6,0c0.8,0,1.3-0.1,1.6-0.2
			c0.7-0.3,1.1-1.1,1.1-2c0-1.9-1.3-2.6-3.3-2.6C1092.7,279.7,1092.3,279.7,1092,279.7L1092,279.7z M1097.1,288.4c0-2-1.4-3-4-3
			c-0.1,0-0.9,0-1.1,0c-0.1,0-0.2,0.1-0.2,0.1c0,1.4,0,3.6,0,4.5c0,0.4,0.3,0.9,0.7,1.1s1.1,0.2,1.7,0.2
			C1095.7,291.4,1097.1,290.5,1097.1,288.4L1097.1,288.4z M1088,278.6c0.2,0,0.8,0.1,2.3,0.1c1.4,0,2.5,0,3.9,0
			c1.7,0,4.1,0.6,4.1,3.2c0,1.2-0.9,2.3-2,2.8c-0.1,0-0.1,0.1,0,0.1c1.6,0.4,3.1,1.4,3.1,3.3c0,1.9-1.1,3.1-2.9,3.8
			c-1.1,0.5-2.3,0.6-3.7,0.6c-1,0-3.7-0.1-5.1-0.1c-0.2-0.1,0.2-0.7,0.2-0.9c0.3,0,0.7,0,1-0.2c0.5-0.2,0.6-0.3,0.7-1.1
			c0-0.7,0-3.1,0-4.8c0-2.4,0-4,0-4.7c0-0.6-0.2-0.8-0.7-0.9c-0.3-0.1-0.9-0.2-1.3-0.2C1087.6,279.4,1087.9,278.7,1088,278.6
			L1088,278.6z M1076.7,290.8c0.5,0.4,1.4,0.5,2.2,0.5c1.1,0,2.1-0.2,3.1-1.1c1.1-0.9,1.8-2.4,1.8-4.7c0-2.2-0.8-4-2.5-5.1
			c-1-0.6-2.2-0.9-3.7-0.9c-0.4,0-0.8,0-1.1,0.2c-0.1,0-0.2,0.2-0.2,0.3c0,0.4,0,3.4,0,5.1c0,1.8,0,4.3,0,4.7
			C1076.3,290.1,1076.4,290.6,1076.7,290.8L1076.7,290.8z M1072.3,278.6c0.4,0,1.8,0.1,2.4,0.1c1.2,0,2.1-0.1,4.4-0.1
			c2,0,3.6,0.5,4.7,1.6c1.4,1.2,2.2,2.9,2.2,5c0,2.9-1.4,4.7-2.7,5.6c-1.4,1-3.1,1.6-5.6,1.6c-1.3,0-3.6,0-5.6-0.1l0,0
			c-0.1-0.2,0.2-0.9,0.3-0.9c0.5-0.1,0.7-0.1,0.9-0.2c0.4-0.2,0.5-0.4,0.6-1.1c0.1-1.4,0-2.9,0-4.8c0-1.3,0-3.8,0-4.7
			c-0.1-0.7-0.3-0.9-0.9-1c-0.3-0.1-0.7-0.2-1.2-0.2C1071.8,279.4,1072.2,278.8,1072.3,278.6L1072.3,278.6z"/>
		<path class="st4" d="M1048.7,291.6c-0.5-0.1-0.8-0.2-1.3-0.3c-0.1,0-0.2-0.2-0.2-0.3c0-0.7,0-2.6,0-3.9c0-1.1-0.2-2-0.7-2.6
			c-0.5-0.7-1.3-1.1-2.3-1.1c-0.9,0-2,0.6-2.9,1.4c0,0-0.2,0.2-0.2-0.1s0-0.7,0.1-0.9c0-0.2-0.2-0.4-0.2-0.4c-0.7,0.3-2.4,0.7-3,0.8
			c-0.5,0.1-0.6,0.6-0.1,0.7l0,0c0.5,0.2,0.9,0.3,1.1,0.5c0.2,0.2,0.2,0.4,0.2,0.6c0,1.5,0,3.7,0,5c0,0.5-0.2,0.7-0.5,0.7l0,0
			c-0.2,0.1-0.5,0.1-0.8,0.2c-0.1,0.1-0.1,0.7,0,0.9c0.2,0,1.4-0.1,2.3-0.1c1.3,0,2,0.1,2.3,0.1c0.2-0.2,0.2-0.7,0.1-0.9
			c-0.4,0-0.7-0.1-0.9-0.2c-0.3-0.1-0.5-0.2-0.5-0.7c0-1.1,0-3.3,0-4.7c0-0.4,0.1-0.6,0.2-0.7c0.5-0.4,1.1-0.7,1.8-0.7
			s1.1,0.2,1.4,0.5c0.4,0.3,0.6,0.9,0.7,1.2c0.1,0.8,0.1,2.5,0.1,3.9c0,0.8-0.1,1-0.3,1.1c-0.2,0.1-0.5,0.2-0.9,0.2
			c-0.2,0.2-0.1,0.7,0,0.9c0.6,0,1.2-0.1,2.2-0.1c1.2,0,2,0.1,2.3,0.1C1048.7,292.3,1048.7,291.7,1048.7,291.6L1048.7,291.6z
			 M1054.1,284.1c-1.1,0-1.7,0.8-1.7,2c0,1.3,0.6,2.8,2.2,2.8c0.2,0,0.8-0.1,1-0.4c0.4-0.3,0.7-1.1,0.7-1.8
			C1056.2,285.1,1055.4,284.1,1054.1,284.1L1054.1,284.1z M1054,292.8c-0.4,0-0.7,0.1-0.8,0.2c-0.8,0.5-1.2,1.1-1.2,1.6
			c0,0.6,0.2,1,0.7,1.4c0.6,0.5,1.4,0.7,2.4,0.7c2,0,2.9-1.1,2.9-2.1c0-0.7-0.4-1.2-1.1-1.5C1056.1,292.8,1055.1,292.8,1054,292.8
			L1054,292.8z M1054.1,297.8c-1.2,0-2-0.2-2.8-0.8c-0.7-0.6-1.1-1.4-1.1-2c0-0.2,0-0.6,0.4-1c0.2-0.2,0.7-0.7,1.8-1.5
			c0,0,0.1,0,0.1-0.1c0,0,0-0.1-0.1-0.1c-0.9-0.3-1.2-0.9-1.3-1.2l0,0c0-0.1-0.1-0.2,0.1-0.3c0.2-0.1,0.3-0.2,0.6-0.3
			c0.3-0.2,0.7-0.4,0.9-0.6v-0.1c0,0,0-0.1-0.1-0.1c-1.4-0.5-2-1.5-2-3c0-1,0.5-1.9,1.2-2.4c0.6-0.4,1.9-1,2.8-1h0.1
			c0.9,0,1.4,0.2,2.1,0.5c0.4,0.2,0.7,0.2,1.3,0.2c0.7,0,1.1-0.2,1.4-0.5c0,0,0.1,0.2,0.1,0.4c0,0.2-0.1,0.7-0.2,0.9
			c-0.2,0.2-0.5,0.4-0.9,0.4h0c-0.3,0-0.5-0.1-0.5-0.1h-0.1c0,0,0,0.1,0,0.2l0,0c0,0.2,0.1,0.7,0.1,0.8c0,1.6-0.7,2.3-1.3,2.9
			c-0.7,0.5-1.4,0.8-2.3,0.9c0,0-0.1,0-0.2,0c-0.1,0-0.2,0-0.2,0l0,0c-0.2,0-0.6,0.2-0.6,0.6c0,0.3,0.2,0.7,1,0.7c0.2,0,0.3,0,0.6,0
			c1.1,0.1,2.5,0.2,3.2,0.4c0.9,0.3,1.5,1.1,1.5,2.1c0,1.5-1.1,2.8-2.8,3.7C1055.8,297.6,1055,297.8,1054.1,297.8L1054.1,297.8z
			 M1065.2,284.2c-0.4,0-0.8,0.1-1.1,0.3c-0.7,0.5-1.1,1.4-1.1,2.8c0,2.5,1.3,4.3,3.1,4.3c0.6,0,1-0.2,1.4-0.5
			c0.6-0.5,0.9-1.4,0.9-2.7C1068.3,285.9,1067,284.2,1065.2,284.2L1065.2,284.2z M1065.6,292.6c-3.3,0-4.5-2.4-4.5-4.7
			c0-1.6,0.7-2.9,2-3.7c0.9-0.6,2-0.9,3-0.9c2.5,0,4.3,1.8,4.3,4.4c0,1.8-0.7,3.2-2,4.1C1067.6,292.2,1066.5,292.6,1065.6,292.6
			L1065.6,292.6L1065.6,292.6z M1030.7,284.2c-0.4,0-0.8,0.1-1.1,0.3c-0.7,0.5-1.1,1.4-1.1,2.8c0,2.5,1.3,4.3,3.1,4.3
			c0.6,0,1-0.2,1.4-0.5c0.6-0.5,0.9-1.4,0.9-2.7C1033.9,285.9,1032.6,284.2,1030.7,284.2L1030.7,284.2z M1031.1,292.6
			c-3.3,0-4.5-2.4-4.5-4.7c0-1.6,0.7-2.9,2-3.7c0.9-0.6,2-0.9,3-0.9c2.5,0,4.3,1.8,4.3,4.4c0,1.8-0.7,3.2-2,4.1
			C1033.2,292.2,1032,292.6,1031.1,292.6L1031.1,292.6z M1008.7,292.3c0-0.1-0.1-0.2-0.1-0.5c0-0.2,0-0.2,0.1-0.3
			c0.4-0.1,0.7-0.1,0.9-0.2c0.4-0.1,0.6-0.3,0.6-0.8c0.1-1.1,0.1-3.4,0-5l0,0c0-0.2,0-0.4-0.2-0.6c-0.3-0.2-0.7-0.4-1.1-0.5
			c-0.2-0.1-0.3-0.2-0.2-0.2c0-0.1,0.1-0.2,0.4-0.3c0.7-0.1,2.3-0.5,3-0.7c0,0,0.1,0.2,0.1,0.3v0.2c0,0.2,0,0.5,0,0.7
			c0,0.1,0.1,0.2,0.2,0.2h0.1c1.2-1,2.4-1.3,2.9-1.3c1,0,1.7,0.5,2.3,1.4c0,0.1,0.1,0.1,0.2,0.1c0,0,0.1,0,0.1-0.1
			c1.1-0.9,2.3-1.4,3.1-1.4c1.8,0,2.9,1.4,2.9,3.7c0,0.7,0,1.5,0,2.3c0,0.7,0,1.3,0,1.8c0,0.1,0.2,0.4,0.3,0.5
			c0.2,0.2,0.7,0.2,1.1,0.2l0,0c0,0.2,0,0.7-0.1,0.7c-0.1,0-0.3,0-0.5,0c-0.5,0-1,0-1.5,0c-1.2,0-1.9,0-2.4,0.1c0-0.2-0.1-0.7,0-0.7
			c0.3-0.1,0.5-0.1,0.7-0.2c0.4-0.1,0.5-0.3,0.5-0.8c0-0.4,0.1-3.5,0-4.3c-0.1-0.8-0.7-1.7-2-1.7c-0.5,0-1.2,0.2-2,0.7l-0.1,0.2l0,0
			c0.1,0.4,0.1,0.9,0.1,1.6v1.3c0,0.9,0,1.7,0,2.3c0,0.4,0.2,0.5,0.5,0.6c0.1,0,0.2,0,0.3,0.1c0.2,0,0.3,0.1,0.7,0.2
			c0,0.1,0,0.3,0,0.6c0,0.1-0.1,0.2-0.1,0.2c-0.7,0-1.4,0-2.4,0c-0.3,0-0.8,0-1.2,0c-0.3,0-0.7,0-0.9,0c0,0-0.1-0.2-0.1-0.4
			c0-0.2,0-0.3,0.1-0.3c0.1,0,0.2,0,0.2,0c0.2,0,0.4-0.1,0.7-0.1c0.3-0.1,0.5-0.2,0.5-0.7c0.1-1,0.1-3.8,0-4.5
			c-0.2-1.1-0.9-1.7-1.9-1.7c-0.6,0-1.4,0.3-2,0.7c-0.1,0.1-0.2,0.2-0.2,0.5v1.1c0,1.4,0,3.2,0,3.9c0,0.2,0.1,0.5,0.6,0.6
			c0.1,0,0.2,0.1,0.5,0.1l0.3,0.1c0,0.1,0,0.6-0.1,0.7c-0.2,0-0.4,0-0.7,0c-0.4,0-0.9,0-1.6,0s-1.1,0-1.6,0
			C1009.2,292.3,1009,292.3,1008.7,292.3L1008.7,292.3z"/>
		<path class="st12" d="M998.5,297.1l-0.8-0.2c0,0,0.1-4.1-1.4-4.4c-1-1.1,0.2-48.1,3.7-0.2c0,0-1.2,0.6-1.4,1.6
			C998.3,294.9,998.5,297.1,998.5,297.1z"/>
		<path class="st4" d="M998.5,297.1l-0.8-0.2c0,0,0.1-4.1-1.4-4.4c-1-1.1,0.2-48.1,3.7-0.2c0,0-1.2,0.6-1.4,1.6
			C998.3,294.9,998.5,297.1,998.5,297.1z"/>
		<path class="st12" d="M998.9,293.1c0,0,7-4.7,5.4-14.2c-1.6-6.9-5.3-9.2-5.7-10.1c-0.5-0.7-0.9-1.7-0.9-1.7l0.3,19.4
			C998,286.5,997.3,292.4,998.9,293.1"/>
		<path class="st4" d="M998.9,293.1c0,0,7-4.7,5.4-14.2c-1.6-6.9-5.3-9.2-5.7-10.1c-0.5-0.7-0.9-1.7-0.9-1.7l0.3,19.4
			C998,286.5,997.3,292.4,998.9,293.1"/>
		<path class="st12" d="M997.2,293.4c0,0-6.6-4.5-6.2-12.4s5.1-11.8,6-12.5c0.6-0.7,0.6-0.9,0.7-1.5c0.4,0.9,0.3,13.1,0.4,14.6
			C998.2,287.1,997.7,292.3,997.2,293.4z"/>
		<path class="st4" d="M997.2,293.4c0,0-6.6-4.5-6.2-12.4s5.1-11.8,6-12.5c0.6-0.7,0.6-0.9,0.7-1.5c0.4,0.9,0.3,13.1,0.4,14.6
			C998.2,287.1,997.7,292.3,997.2,293.4z"/>
	</g>
</g>
<path class="st3" d="M1336.1,272.3c0.4,0.2,0.7,0.5,1.1,0.8l8.1-3.6l-7.5-7.4L1336.1,272.3L1336.1,272.3z M1319.4,265.5
	c0.4,0.6,0.7,1.2,0.7,2l12,5.1c0.3-0.2,0.7-0.5,1.2-0.6l2-12.2l-7.3-7.7l-8.6,13.2L1319.4,265.5z M1360.3,284.3l-12.8-12.8l-8.7,3.6
	L1360.3,284.3C1360.2,284.2,1360.4,284.3,1360.3,284.3L1360.3,284.3z M1358.1,286.4l-20.6-8.8c-0.6,0.7-1.5,1.3-2.4,1.4l-2.2,13.6
	c0.7,0.7,1.1,1.6,1.1,2.5l12.5,2.6l11.4-11.3v-0.2L1358.1,286.4z M1330.9,274.8l-11.2-4.7c-0.8,1.2-2.1,1.9-3.6,1.9h-0.7l-9.3,14.3
	l24.7-10.7l0,0c0-0.2,0-0.4,0-0.6C1330.9,274.9,1330.9,274.8,1330.9,274.8L1330.9,274.8z M1344.4,299.9l-10.9-2.3
	c-0.4,0.6-1,0.9-1.6,1.1l-2.6,16.2L1344.4,299.9C1344.5,299.9,1344.4,299.9,1344.4,299.9L1344.4,299.9z M1329.1,298.7
	c-1.1-0.4-1.8-1.3-2.1-2.4l-20.4-4.2l-0.3,0.5l18.5,26.8l1.1-1.1L1329.1,298.7C1329.1,298.8,1329.2,298.9,1329.1,298.7L1329.1,298.7
	z M1307,289.7l20.2,4.2c0.6-1.1,1.6-1.7,2.9-1.8l2.2-13.3l-0.5-0.4l-25.1,10.8C1306.9,289.2,1306.9,289.4,1307,289.7L1307,289.7z
	 M1298.6,293l-0.4-0.4l-8.7,3.6l4.2,4.2L1298.6,293L1298.6,293z M1304.3,294.4c-0.6,0.2-1.3,0.4-2,0.4c-0.6,0-1.1-0.1-1.6-0.2
	l-5.3,7.7l23.2,22.9l4.1-4.1L1304.3,294.4z M1301.1,285.3c0.3,0,0.7,0,1.1,0c0.4-0.1,0.8-0.1,1.1,0l9.4-14.5
	c-0.7-0.7-1.1-1.8-1.1-2.9c0-0.3,0-0.7,0-0.9l-11.3-5.2l-9.1,8.8L1301.1,285.3z M1302.1,259.9l11.1,4.7c0.8-0.7,1.8-1,2.9-1
	c0.5,0,0.9,0.1,1.4,0.2l8.7-13.6l-7.2-7.2l-16.8,16.5C1302.1,259.7,1302,259.9,1302.1,259.9L1302.1,259.9z M1298,287.9
	c0.2-0.4,0.5-0.8,0.8-1.1l-9.5-14.2l-11.3,10.9L1298,287.9z M1297.1,290.3l-17.1-3.6l7.6,7.7L1297.1,290.3L1297.1,290.3z"/>
<path class="st3" d="M1207.1,326.1h-47.9c-3.3,0-6,2.7-6,6v54.8c0,3.3,2.7,6,6,6h47.9c3.3,0,6-2.7,6-6v-54.8
	C1213.2,328.8,1210.5,326.1,1207.1,326.1L1207.1,326.1z M1209.8,386.9c0,1.5-1.1,2.7-2.7,2.7h-47.9c-1.5,0-2.7-1.1-2.7-2.7v-54.8
	c0-1.5,1.1-2.7,2.7-2.7h47.9c1.5,0,2.7,1.1,2.7,2.7V386.9z M1168.2,382.9l7.5-6.7l-7.5-6.7V382.9z M1195.3,355.8c-1.3-1.3-3.8-3-8-3
	c-4.5,0-9.2,1.1-12.6,2.4v-19h-6.7V365l4.7-2.2c0,0,7.7-3.5,14.4-3.5c3.3,0,4.2,1.9,4.2,3.5v20.1h6.7v-20.1
	C1198.1,362.3,1198.1,358.6,1195.3,355.8L1195.3,355.8z M1186.4,347h6.7c3-3.5,4.5-7,5-10.9h-6.6
	C1190.8,339.9,1189.1,343.4,1186.4,347z"/>
<g>
	<path class="st3" d="M1319.8,409.8c-4.1,0-6.9,2.6-6.9,6.6c0,4,3.3,6.6,7.3,6.6c2.4,0,4.6-1,6-2.6l-2.8-1.6
		c-0.7,0.8-1.9,1.3-3.1,1.3c-1.8,0-3.3-0.9-3.8-2.4h10.3c0.1-0.4,0.2-0.8,0.2-1.3C1326.9,412.5,1323.9,409.8,1319.8,409.8z
		 M1316.4,415.1c0.5-1.5,1.7-2.4,3.4-2.4c1.8,0,3,0.9,3.4,2.4H1316.4L1316.4,415.1z M1359.4,409.8c-4.1,0-6.9,2.6-6.9,6.6
		c0,4,3.3,6.6,7.3,6.6c2.4,0,4.6-1,6-2.6l-2.8-1.6c-0.7,0.8-1.9,1.3-3.1,1.3c-1.8,0-3.3-0.9-3.8-2.4h10.3c0.1-0.4,0.2-0.8,0.2-1.3
		C1366.4,412.5,1363.4,409.8,1359.4,409.8L1359.4,409.8z M1355.9,415.1c0.5-1.5,1.7-2.4,3.4-2.4c1.8,0,3,0.9,3.4,2.4H1355.9z
		 M1341.6,416.4c0,2.2,1.5,3.7,3.7,3.7c1.6,0,2.6-0.7,3.3-1.8l2.9,1.6c-1.1,2-3.3,3.1-6,3.1c-4.1,0-6.9-2.6-6.9-6.6
		c0-4,2.9-6.6,6.9-6.6c2.7,0,4.9,1.1,6,3.1l-2.9,1.6c-0.6-1.1-1.7-1.8-3.3-1.8C1343,412.7,1341.6,414.2,1341.6,416.4z M1371.8,405.8
		v16.9h-3.3v-16.9H1371.8z M1281.6,403.9l13.6,23.5h-27.1L1281.6,403.9z M1315.5,405.8l-10.2,17.6l-10.1-17.6h3.8l6.4,11l6.4-11
		H1315.5z M1337.1,410.2v3.6c-0.3-0.1-0.7-0.2-1.1-0.2c-2.1,0-3.7,1.5-3.7,3.7v5.5h-3.3v-12.5h3.3v3.3
		C1332.3,411.7,1334.5,410.2,1337.1,410.2z"/>
</g>
<g id="Layer_2_00000029011813663096647090000002261602306581940638_">
	<g id="invisible_box_00000062901071903137858690000017717185849632181640_">
		<rect x="995.4" y="366.9" class="st6" width="101.6" height="101.6"/>
	</g>
	<g id="Q3_icons_00000005986961643110613720000014462416375379409549_">
		<g>
			<rect x="1041.2" y="409" class="st3" width="5.1" height="10.3"/>
			<path class="st3" d="M999.7,398.6v31.1h25.8v5.3h20.7v-5.3h46.6v-31.1L999.7,398.6L999.7,398.6z M1025.5,424.5h-5.1v-15.4h-5.3
				v15.4h-10.2v-20.6h20.6V424.5z M1051.5,424.5h-10.4v5.3h-10.4V404h20.7V424.5L1051.5,424.5z M1087.8,424.5h-5.1v-15.4h-5.3v15.4
				h-5.3v-15.4h-5.1v15.4h-10.4v-20.6h31.1V424.5z"/>
		</g>
	</g>
</g>
<path class="st3" d="M963.6,343.5L930,309.9c-0.9-0.9-2.1-1.5-3.5-1.5s-2.6,0.6-3.5,1.5l0,0l-6.9,7l8.9,8.9c0.6-0.2,1.2-0.3,1.9-0.3
	c3.3,0,5.9,2.6,5.9,5.9c0,0.7-0.1,1.4-0.3,2v-0.1l8.6,8.6c0.6-0.2,1.2-0.3,1.9-0.3c3.3,0,5.9,2.6,5.9,5.9c0,3.3-2.6,5.9-5.9,5.9
	c-3.3,0-5.9-2.6-5.9-5.9c0-0.8,0.2-1.6,0.5-2.3l0,0l-8-7.9v21c2,1,3.3,3,3.3,5.3c0,3.3-2.6,5.9-5.9,5.9s-5.9-2.6-5.9-5.9
	c0-1.6,0.7-3.1,1.7-4.2l0,0c0.6-0.6,1.2-1,1.9-1.3l0,0v-21.1c-2.1-0.9-3.7-3-3.7-5.5c0-0.8,0.2-1.6,0.5-2.3l0,0l-8.7-8.7l-23.1,23
	c-0.9,0.9-1.5,2.1-1.5,3.5c0,1.4,0.6,2.6,1.5,3.5l33.6,33.6c0.9,0.9,2.1,1.5,3.5,1.5c1.4,0,2.6-0.6,3.5-1.5l33.5-33.5
	c0.9-0.9,1.5-2.1,1.5-3.5S964.5,344.4,963.6,343.5L963.6,343.5L963.6,343.5z"/>
<polygon class="st0" points="1195.3,721.2 1177.5,721.2 1168.6,736.7 1177.5,752.1 1195.3,752.1 1204.2,736.7 "/>
<polygon class="st13" points="809.8,356.7 728.2,356.7 687.4,427.4 728.2,498 809.8,498 850.7,427.4 "/>
<g id="svgGroup_00000176736350000095368410000010737967986879581573_">
	<path vector-effect="non-scaling-stroke" class="st14" d="M704,440.2c1.5,0.3,3.1,0.5,4.7,0.5c0.6,0,1.1,0,1.7-0.1
		c1.1-0.1,2.1-0.2,3-0.5c1.2-0.3,2.2-0.8,3.2-1.3c0.1,0,0.1-0.1,0.1-0.1c1.1-0.7,1.9-1.6,2.3-2.6c0.3-0.8,0.5-1.6,0.5-2.5
		c0-1.1-0.3-2.1-1-3c-0.5-0.6-1-1.1-1.7-1.6c-0.2-0.1-0.5-0.3-0.7-0.4c-1.8-1-4.5-1.9-8-2.6c-0.1,0-0.2-0.1-0.3-0.1
		c-1.4-0.3-2.7-0.6-3.7-0.9c-0.5-0.1-0.9-0.3-1.4-0.5c-0.8-0.3-1.4-0.6-1.9-1c-0.3-0.2-0.6-0.4-0.8-0.7c-0.3-0.3-0.6-0.8-0.7-1.2
		c-0.1-0.3-0.1-0.8-0.1-1.2c0-0.3,0-0.6,0.1-0.8c0.1-1.1,0.9-2.1,2-2.8c0.1-0.1,0.3-0.1,0.4-0.2c1-0.4,2.2-0.7,3.7-0.8
		c0.8-0.1,1.5-0.1,2.2-0.1c1.2,0,2.2,0.1,3.2,0.2c0.9,0.1,1.7,0.3,2.5,0.6c0.5,0.2,1,0.4,1.4,0.6c0.8,0.5,1.5,1.1,2.1,1.9
		c0,0.1,0.1,0.1,0.1,0.1c0.1,0.1,0.2,0.2,0.4,0.3l0,0c0.2,0.1,0.4,0.1,0.6,0.1c0.1,0,0.1,0,0.2,0c0.1,0,0.2-0.1,0.3-0.1
		c0.2-0.1,0.3-0.2,0.5-0.4c0.1-0.1,0.1-0.3,0.1-0.3c0-0.2-0.1-0.3-0.1-0.5c-0.6-0.8-1.3-1.6-2.3-2.2c-0.6-0.3-1.3-0.7-2-1
		c-1-0.4-2.1-0.7-3.1-0.9c-1.2-0.2-2.5-0.3-3.9-0.3c-1.9,0-3.4,0.2-4.8,0.6c-1.1,0.3-2.1,0.7-3,1.2c-1.1,0.7-1.9,1.4-2.3,2.4
		c-0.3,0.8-0.6,1.6-0.6,2.4c0,0.1,0,0.1,0,0.1c0,1,0.3,1.9,0.8,2.7c0.5,0.7,1.1,1.3,1.9,1.8c0.3,0.1,0.5,0.3,0.8,0.5
		c1.8,1,4.4,1.8,7.8,2.4c0.6,0.1,1.2,0.2,1.7,0.3c1.6,0.3,2.9,0.8,3.9,1.2c0.5,0.2,1,0.4,1.4,0.7c0.2,0.1,0.4,0.3,0.6,0.4
		c1,0.8,1.5,1.8,1.5,3c0,0.3,0,0.5-0.1,0.8c-0.1,1.2-1,2.3-2.1,3c-1,0.6-2.3,1-4,1.2c-0.8,0.1-1.6,0.1-2.4,0.1
		c-0.9,0-1.9-0.1-2.8-0.1c-1.2-0.1-2.3-0.4-3.3-0.8c-0.4-0.1-0.9-0.3-1.3-0.6c-1.2-0.6-2.1-1.2-3-2.1c-0.1-0.1-0.3-0.3-0.5-0.4
		c-0.2-0.1-0.4-0.2-0.6-0.2h-0.1c-0.1,0-0.1,0-0.2,0c-0.1,0-0.1,0.1-0.2,0.1c-0.3,0.2-0.5,0.4-0.5,0.8c0,0.1,0,0.1,0,0.1
		c0,0.1,0.1,0.1,0.1,0.2c0.1,0.1,0.1,0.1,0.1,0.2c0.1,0.1,0.2,0.3,0.3,0.4c1,1.2,2.6,2.1,4.5,2.8C702.2,439.7,703.1,440,704,440.2z
		 M826.2,440.2c1.5,0.3,3.1,0.5,4.7,0.5c0.6,0,1.1,0,1.7-0.1c1.1-0.1,2.1-0.2,3-0.5c1.2-0.3,2.2-0.8,3.2-1.3c0.1,0,0.1-0.1,0.1-0.1
		c1.1-0.7,1.9-1.6,2.3-2.6c0.3-0.8,0.5-1.6,0.5-2.5c0-1.1-0.3-2.1-1-3c-0.5-0.6-1-1.1-1.7-1.6c-0.2-0.1-0.5-0.3-0.7-0.4
		c-1.8-1-4.5-1.9-8-2.6c-0.1,0-0.2-0.1-0.3-0.1c-1.4-0.3-2.7-0.6-3.7-0.9c-0.5-0.1-0.9-0.3-1.4-0.5c-0.8-0.3-1.4-0.6-1.9-1
		c-0.3-0.2-0.6-0.4-0.8-0.7c-0.3-0.3-0.6-0.8-0.7-1.2c-0.1-0.3-0.1-0.8-0.1-1.2c0-0.3,0-0.6,0.1-0.8c0.1-1.1,0.9-2.1,2-2.8
		c0.1-0.1,0.3-0.1,0.4-0.2c1-0.4,2.2-0.7,3.7-0.8c0.8-0.1,1.5-0.1,2.2-0.1c1.2,0,2.2,0.1,3.2,0.2c0.9,0.1,1.7,0.3,2.5,0.6
		c0.5,0.2,1,0.4,1.4,0.6c0.8,0.5,1.5,1.1,2.1,1.9c0,0.1,0.1,0.1,0.1,0.1c0.1,0.1,0.2,0.2,0.4,0.3l0,0c0.2,0.1,0.4,0.1,0.6,0.1
		c0.1,0,0.1,0,0.2,0c0.1,0,0.2-0.1,0.3-0.1c0.2-0.1,0.3-0.2,0.5-0.4c0.1-0.1,0.1-0.3,0.1-0.3c0-0.2-0.1-0.3-0.1-0.5
		c-0.6-0.8-1.3-1.6-2.3-2.2c-0.6-0.3-1.3-0.7-2-1c-1-0.4-2.1-0.7-3.1-0.9c-1.2-0.2-2.5-0.3-3.9-0.3c-1.9,0-3.4,0.2-4.8,0.6
		c-1.1,0.3-2.1,0.7-3,1.2c-1.1,0.7-1.9,1.4-2.3,2.4c-0.3,0.8-0.6,1.6-0.6,2.4c0,0.1,0,0.1,0,0.1c0,1,0.3,1.9,0.8,2.7
		c0.5,0.7,1.1,1.3,1.9,1.8c0.3,0.1,0.5,0.3,0.8,0.5c1.8,1,4.4,1.8,7.8,2.4c0.6,0.1,1.2,0.2,1.7,0.3c1.6,0.3,2.9,0.8,3.9,1.2
		c0.5,0.2,1,0.4,1.4,0.7c0.2,0.1,0.4,0.3,0.6,0.4c1,0.8,1.5,1.8,1.5,3c0,0.3,0,0.5-0.1,0.8c-0.1,1.2-1,2.3-2.1,3c-1,0.6-2.3,1-4,1.2
		c-0.8,0.1-1.6,0.1-2.4,0.1c-0.9,0-1.9-0.1-2.8-0.1c-1.2-0.1-2.3-0.4-3.3-0.8c-0.4-0.1-0.9-0.3-1.3-0.6c-1.2-0.6-2.1-1.2-3-2.1
		c-0.1-0.1-0.3-0.3-0.5-0.4c-0.2-0.1-0.4-0.2-0.6-0.2h-0.1c-0.1,0-0.1,0-0.2,0c-0.1,0-0.1,0.1-0.2,0.1c-0.3,0.2-0.5,0.4-0.5,0.8
		c0,0.1,0,0.1,0,0.1c0,0.1,0.1,0.1,0.1,0.2c0.1,0.1,0.1,0.1,0.1,0.2c0.1,0.1,0.2,0.3,0.3,0.4c1,1.2,2.6,2.1,4.5,2.8
		C824.4,439.7,825.3,440,826.2,440.2z M734,426.1l-5.8,4.2v9.2c0,0.1,0,0.3-0.1,0.4c-0.1,0.5-0.5,0.8-1.1,0.8c-0.7,0-1-0.3-1.1-1
		c0-0.1,0-0.1,0-0.2v-24.3c0-0.7,0.3-1.1,0.9-1.2c0.1,0,0.1,0,0.2,0c0.1,0,0.3,0,0.5,0.1c0.4,0.1,0.6,0.5,0.6,1c0,0.1,0,0.1,0,0.1
		v12.7l17.9-13.4c0.1-0.1,0.3-0.2,0.6-0.2c0,0,0,0,0.1,0c0.2,0,0.5,0.1,0.6,0.2c0.1,0,0.1,0.1,0.1,0.1c0.2,0.1,0.3,0.4,0.3,0.6l0,0
		c0,0.1,0,0.2-0.1,0.3c-0.1,0.1-0.1,0.2-0.3,0.3l-11.9,9.1c1.5,0.8,3,1.7,4.3,2.7c1.5,1.1,2.9,2.3,4,3.5c0.1,0.1,0.2,0.2,0.3,0.3
		c2.1,2.4,3.5,5.1,4.2,8c0,0.1,0,0.1,0,0.2c0,0.1,0,0.3-0.1,0.5c0,0.1-0.1,0.1-0.1,0.2c-0.1,0.2-0.3,0.3-0.6,0.3c-0.1,0-0.1,0-0.1,0
		c-0.3,0-0.5-0.1-0.7-0.2c-0.1-0.1-0.2-0.3-0.3-0.4c0-0.1-0.1-0.1-0.1-0.2c-0.8-3-2.1-5.5-4.1-7.8c-1.2-1.3-2.5-2.5-4-3.4
		C737,427.7,735.5,426.8,734,426.1z M767.3,436.2v-21c0-0.7,0.3-1.1,0.9-1.2c0.1,0,0.1,0,0.2,0c0.1,0,0.3,0,0.5,0.1
		c0.4,0.1,0.6,0.5,0.6,1c0,0.1,0,0.1,0,0.1v21.1c0,0.2,0,0.5,0.1,0.7c0.1,0.3,0.3,0.6,0.6,0.9c0.3,0.3,0.8,0.6,1.3,0.6
		c0.1,0,0.3,0,0.4,0h14.3c0.1,0,0.2,0,0.3,0c0.2,0,0.4,0.1,0.6,0.1c0,0,0.1,0,0.1,0.1c0.1,0.1,0.2,0.1,0.2,0.3
		c0,0.1,0.1,0.1,0.1,0.2s0,0.1,0,0.1c0,0.1,0,0.3-0.1,0.4c-0.1,0.3-0.4,0.4-0.9,0.5c-0.1,0-0.2,0-0.3,0h-14c-1.6,0-2.8-0.3-3.6-1.1
		c-0.6-0.5-1-1.1-1.2-1.8C767.3,437,767.3,436.6,767.3,436.2z M793.5,436.2v-21c0-0.7,0.3-1.1,0.9-1.2c0.1,0,0.1,0,0.2,0
		c0.1,0,0.3,0,0.5,0.1c0.4,0.1,0.6,0.5,0.6,1c0,0.1,0,0.1,0,0.1v21.1c0,0.2,0,0.5,0.1,0.7c0.1,0.3,0.3,0.6,0.6,0.9
		c0.3,0.3,0.8,0.6,1.3,0.6c0.1,0,0.3,0,0.4,0h14.3c0.1,0,0.2,0,0.3,0c0.2,0,0.4,0.1,0.6,0.1c0,0,0.1,0,0.1,0.1
		c0.1,0.1,0.2,0.1,0.2,0.3c0,0.1,0.1,0.1,0.1,0.2s0,0.1,0,0.1c0,0.1,0,0.3-0.1,0.4c-0.1,0.3-0.4,0.4-0.9,0.5c-0.1,0-0.2,0-0.3,0h-14
		c-1.6,0-2.8-0.3-3.6-1.1c-0.6-0.5-1-1.1-1.2-1.8C793.5,437,793.5,436.6,793.5,436.2z M756.1,439.5v-24.3c0-0.7,0.3-1.1,0.9-1.2
		c0.1,0,0.1,0,0.2,0c0.1,0,0.3,0,0.5,0.1c0.4,0.1,0.6,0.5,0.6,1c0,0.1,0,0.1,0,0.1v24.2c0,0.1,0,0.3-0.1,0.4
		c-0.1,0.5-0.5,0.8-1.1,0.8c-0.7,0-1-0.3-1.1-1C756.1,439.6,756.1,439.5,756.1,439.5z"/>
</g>
</svg>
