<?xml version="1.0" standalone="no"?>
<svg xmlns:xlink="http://www.w3.org/1999/xlink" id="wave" style="transform:rotate(180deg); transition: 0.3s"
    viewBox="0 0 1440 110" version="1.1" xmlns="http://www.w3.org/2000/svg">
    <defs>
        <linearGradient id="sw-gradient-0" x1="0" x2="0" y1="1" y2="0">
            <stop stop-color="#000000" offset="0%" />
            <stop stop-color="#000000" offset="100%" />
        </linearGradient>
    </defs>
    <path style="transform:translate(0, 0px); opacity:1" fill="url(#sw-gradient-0)"
        d="M0,55L48,45.8C96,37,192,18,288,14.7C384,11,480,22,576,38.5C672,55,768,77,864,80.7C960,84,1056,70,1152,55C1248,40,1344,26,1440,27.5C1536,29,1632,48,1728,47.7C1824,48,1920,29,2016,34.8C2112,40,2208,70,2304,67.8C2400,66,2496,33,2592,27.5C2688,22,2784,44,2880,45.8C2976,48,3072,29,3168,34.8C3264,40,3360,70,3456,73.3C3552,77,3648,55,3744,51.3C3840,48,3936,62,4032,71.5C4128,81,4224,84,4320,75.2C4416,66,4512,44,4608,42.2C4704,40,4800,59,4896,64.2C4992,70,5088,62,5184,56.8C5280,51,5376,48,5472,42.2C5568,37,5664,29,5760,34.8C5856,40,5952,59,6048,67.8C6144,77,6240,77,6336,80.7C6432,84,6528,92,6624,84.3C6720,77,6816,55,6864,44L6912,33L6912,110L6864,110C6816,110,6720,110,6624,110C6528,110,6432,110,6336,110C6240,110,6144,110,6048,110C5952,110,5856,110,5760,110C5664,110,5568,110,5472,110C5376,110,5280,110,5184,110C5088,110,4992,110,4896,110C4800,110,4704,110,4608,110C4512,110,4416,110,4320,110C4224,110,4128,110,4032,110C3936,110,3840,110,3744,110C3648,110,3552,110,3456,110C3360,110,3264,110,3168,110C3072,110,2976,110,2880,110C2784,110,2688,110,2592,110C2496,110,2400,110,2304,110C2208,110,2112,110,2016,110C1920,110,1824,110,1728,110C1632,110,1536,110,1440,110C1344,110,1248,110,1152,110C1056,110,960,110,864,110C768,110,672,110,576,110C480,110,384,110,288,110C192,110,96,110,48,110L0,110Z" />
</svg>